<svg xmlns="http://www.w3.org/2000/svg" xmlns:xlink="http://www.w3.org/1999/xlink" version="1.1" x="0px" y="0px" viewBox="0 0 100 125" enable-background="new 0 0 100 100" xml:space="preserve"><path d="M96.869,54.724h-5.252c-10.35-1.117-15.814-10.327-18.477-17.208v-6.145h1.048v-3.894H67.15v1.048h-3.441v-1.048H56.67  v1.048h-3.441v-1.048H46.19v3.894h1.048v5.454c-2.261,5.55-6.883,13.838-15.063,16.864c-1.552-0.551-3.084-1.347-4.34-2.522  c-0.761-0.712-1.379-1.522-1.854-2.425v-5.318h0.523v-2.322H22.61v0.524h-1.347v-0.524H17.37v0.524h-1.347v-0.524h-3.893v2.322  h0.523v5.252c-2.309,4.488-6.18,5.717-8.078,6.048H3.18c-0.207,0-0.375,0.168-0.375,0.375s0.168,0.375,0.375,0.375h2.311  c-0.01,0.206,0.149,0.381,0.355,0.392l6.809,0.355v5.167c0,0.207,0.168,0.375,0.375,0.375s0.375-0.168,0.375-0.375V56.26v-1.536  V42.673h-0.523v-0.822h2.393v0.524h2.847v-0.524h2.394v0.524h2.847v-0.524h2.394v0.822H25.23v4.174  c-0.281-1.005-0.424-2.098-0.424-3.275c0-0.138-0.112-0.25-0.25-0.25s-0.25,0.112-0.25,0.25c0,1.765,0.316,3.345,0.924,4.742v5.068  c-0.46-0.224-0.91-0.484-1.347-0.778V47.24c0-2.271-1.667-3.409-1.738-3.456l-0.208-0.139l-0.208,0.139  c-0.069,0.046-1.666,1.148-1.728,3.333c-0.289-1.079-0.435-2.261-0.435-3.544c0-0.138-0.112-0.25-0.25-0.25s-0.25,0.112-0.25,0.25  c0,1.897,0.315,3.579,0.924,5.047v5.214c-0.453-0.202-0.905-0.444-1.346-0.732V47.24c0-2.271-1.668-3.409-1.739-3.456l-0.208-0.139  l-0.208,0.139c-0.071,0.047-1.739,1.185-1.739,3.456v0.104c-0.279-1.139-0.424-2.395-0.424-3.771c0-0.138-0.112-0.25-0.25-0.25  s-0.25,0.112-0.25,0.25c0,2.064,0.314,3.872,0.924,5.424v6.102v0.375v0.856l10.48,0.546v2.416c0,0.207,0.168,0.375,0.375,0.375  s0.375-0.168,0.375-0.375v-2.377l21.258,1.107v9.654c0,0.207,0.168,0.375,0.375,0.375s0.375-0.168,0.375-0.375v-9.614v-3.339V30.621  H46.94v-2.394h5.538v1.048h4.941v-1.048h5.539v1.048H67.9v-1.048h5.538v2.394h-1.048v4.814c-1.056-3.16-1.461-5.453-1.474-5.528  c-0.022-0.136-0.152-0.23-0.288-0.206c-0.137,0.023-0.229,0.151-0.206,0.288c0.015,0.086,0.538,3.066,1.968,6.953v11.816  c-1.267-1.004-2.411-2.082-3.441-3.198V39.38c0-4.343-3.177-6.51-3.312-6.6l-0.208-0.139l-0.208,0.139  c-0.093,0.063-1.637,1.117-2.583,3.192c-1.587-3.444-2.188-5.999-2.205-6.078c-0.03-0.134-0.156-0.219-0.299-0.19  c-0.135,0.03-0.22,0.164-0.189,0.298c0.019,0.084,0.68,2.89,2.439,6.6c-0.285,0.799-0.475,1.723-0.475,2.777v10.5  c-1.275-0.859-2.422-1.791-3.441-2.771V39.38c0-4.343-3.177-6.51-3.312-6.6l-0.208-0.139l-0.208,0.139  c-0.106,0.071-2.112,1.449-2.947,4.169c-1.534-3.912-1.829-6.936-1.836-7.022c-0.012-0.138-0.141-0.245-0.27-0.228  c-0.137,0.011-0.24,0.132-0.228,0.27c0.008,0.092,0.342,3.505,2.128,7.796c-0.098,0.501-0.157,1.037-0.157,1.615v15.719v0.375v2.767  l20.96,1.092v3.407c0,0.207,0.168,0.375,0.375,0.375s0.375-0.168,0.375-0.375v-3.368l18.616,0.969  c0.007,0.001,0.014,0.001,0.02,0.001c0.198,0,0.364-0.155,0.374-0.355c0.012-0.207-0.147-0.383-0.354-0.394l-39.615-2.064v-2.054  h5.913h0.375h3.441h0.375h6.289h0.375h27.92c0.207,0,0.375-0.168,0.375-0.375S97.076,54.724,96.869,54.724z M12.654,54.193  c-0.943,0.181-1.822,0.305-2.562,0.382c1.008-0.327,1.92-0.72,2.562-1.108V54.193z M12.654,49.717v3.156  c-0.966,0.668-3.2,1.532-5.281,1.851H6.526C8.447,54.05,10.882,52.645,12.654,49.717z M47.238,38.111v11.141  c-3.509,2.972-7.297,4.756-11.303,5.354c-0.945-0.139-1.971-0.351-3.01-0.667C40.396,50.9,44.855,43.559,47.238,38.111z   M20.74,54.672c0.054,0.019,0.107,0.034,0.161,0.052H20.74V54.672z M30.551,54.724c0.55-0.143,1.089-0.303,1.61-0.488  c0.557,0.193,1.114,0.354,1.661,0.488H30.551z M25.98,54.724v-0.46c0.46,0.181,0.918,0.333,1.37,0.46H25.98z M37.918,54.724  c3.271-0.808,6.39-2.421,9.32-4.832v3.875c-1.535,0.482-3.104,0.8-4.695,0.957H37.918z M25.98,49.714  c0.426,0.657,0.925,1.266,1.513,1.816c1.155,1.081,2.514,1.86,3.907,2.422c-0.789,0.253-1.606,0.462-2.46,0.611  c-0.935-0.172-1.95-0.436-2.96-0.845V49.714z M25.23,53.943v0.78h-1.347v-1.515C24.324,53.487,24.774,53.731,25.23,53.943z   M23.134,52.046c-0.148-0.121-0.299-0.236-0.441-0.368c-0.327-0.303-0.619-0.632-0.895-0.975c0.505-0.48,0.957-0.99,1.336-1.537  V52.046z M20.74,47.24c0-1.436,0.804-2.32,1.197-2.667c0.393,0.347,1.196,1.231,1.196,2.667v0.984  c-0.428,0.75-0.98,1.442-1.641,2.079c-0.28-0.391-0.534-0.801-0.753-1.237V47.24z M21.132,50.653  c-0.123,0.107-0.262,0.205-0.392,0.309v-0.888C20.864,50.272,20.994,50.465,21.132,50.653z M20.74,51.599  c0.239-0.179,0.476-0.358,0.694-0.549c0.284,0.349,0.584,0.685,0.918,0.994c0.251,0.233,0.514,0.444,0.781,0.646v2.033h-0.02  c-0.718-0.104-1.532-0.283-2.374-0.586V51.599z M19.99,54.378v0.346h-1.346v-1.042C19.09,53.954,19.54,54.186,19.99,54.378z   M17.895,52.55c-0.125-0.103-0.252-0.199-0.374-0.311c-0.417-0.381-0.78-0.811-1.116-1.266c0.569-0.521,1.072-1.083,1.49-1.689  V52.55z M17.187,52.611c0.102,0.093,0.21,0.162,0.314,0.248c-0.629,0.272-1.294,0.522-2.001,0.744v-1.89  c0.181-0.135,0.355-0.272,0.525-0.414C16.375,51.771,16.754,52.216,17.187,52.611z M15.5,54.13c0.853-0.262,1.65-0.563,2.395-0.895  v1.488H15.5V54.13z M15.5,47.24c0-1.436,0.804-2.32,1.197-2.667c0.393,0.347,1.197,1.231,1.197,2.667v1.075  c-0.46,0.821-1.057,1.575-1.789,2.251c-0.225-0.345-0.423-0.713-0.606-1.097V47.24z M15.725,50.902  c-0.072,0.061-0.15,0.117-0.225,0.177v-0.563C15.576,50.644,15.643,50.779,15.725,50.902z M15.5,55.617v-0.144h2.77h0.375h1.346  h0.375h3.144h0.375h23.354v1.798L15.5,55.617z M45.637,54.724c0.538-0.125,1.071-0.274,1.601-0.438v0.438H45.637z M68.949,53.775  c1.085,0.336,2.233,0.622,3.441,0.857v0.091h-3.441V53.775z M76.949,54.724c-1.33-0.097-2.604-0.246-3.809-0.457v-4.313  c2.992,2.156,6.6,3.894,10.957,4.77H76.949z M73.141,38.844c2.586,6.179,7.347,13.692,15.641,15.88h-0.979  c-6.08-0.498-10.889-2.597-14.661-5.389V38.844z M72.391,49.405v4.714c-1.207-0.24-2.36-0.525-3.441-0.868v-6.947  C69.983,47.389,71.13,48.433,72.391,49.405z M68.199,44.728c-1.259-1.463-2.331-2.97-3.242-4.438  c0.904-1.249,1.772-2.558,2.602-3.92c0.371,0.832,0.641,1.831,0.641,3.011V44.728z M65.431,33.562  c0.383,0.308,1.212,1.082,1.865,2.284c-0.833,1.385-1.708,2.714-2.618,3.982c-0.602-1.001-1.132-1.981-1.589-2.91  C63.735,35.089,64.944,33.954,65.431,33.562z M64.355,40.263c-0.554,0.755-1.118,1.485-1.695,2.191V39.38  c0-0.642,0.096-1.217,0.227-1.757C63.32,38.474,63.806,39.358,64.355,40.263z M62.66,43.248c0.677-0.808,1.334-1.656,1.979-2.529  c0.99,1.581,2.169,3.199,3.56,4.761v7.51c-2.069-0.717-3.909-1.608-5.539-2.627V43.248z M61.91,50.502v4.222h-3.441v-6.928  C59.499,48.752,60.634,49.667,61.91,50.502z M52.181,44.861c0.624-0.773,1.235-1.585,1.829-2.435  c1.004,1.579,2.226,3.159,3.709,4.649v0.561c-1.792,1.578-3.651,2.905-5.538,3.968V44.861z M57.719,46.346  c-1.352-1.411-2.472-2.895-3.397-4.374c0.61-0.896,1.206-1.824,1.777-2.792c0.422-0.713,0.821-1.459,1.217-2.205  c0.24,0.702,0.403,1.497,0.403,2.404V46.346z M54.95,33.562c0.437,0.351,1.456,1.296,2.129,2.808  c-0.452,0.867-0.922,1.729-1.41,2.557c-0.527,0.892-1.077,1.749-1.638,2.58c-0.689-1.148-1.265-2.285-1.743-3.374  C52.718,35.575,54.363,34.036,54.95,33.562z M53.725,41.966c-0.503,0.726-1.02,1.416-1.544,2.086V39.38  c0-0.082,0.016-0.153,0.018-0.233C52.634,40.067,53.144,41.014,53.725,41.966z M52.181,52.182c1.886-1.038,3.744-2.348,5.538-3.893  v6.435h-5.538V52.182z M62.66,50.957c1.638,0.996,3.475,1.869,5.539,2.569v1.197H62.66V50.957z"/></svg>