<svg xmlns="http://www.w3.org/2000/svg" xmlns:xlink="http://www.w3.org/1999/xlink" version="1.1" x="0px" y="0px" viewBox="0 0 100 125" enable-background="new 0 0 100 100" xml:space="preserve"><g><path d="M50,0C25.764,0,6.779,6.765,6.779,15.4v66.403c0,1.079,0.808,1.935,1.931,2.078c3.06,0.493,6.222,0.929,9.457,1.308   L7.02,98.174c-0.359,0.419-0.312,1.051,0.107,1.41c0.188,0.162,0.42,0.241,0.651,0.241c0.281,0,0.561-0.118,0.759-0.349   L20.58,85.449c9.395,1.006,19.367,1.539,29.42,1.539c10.061,0,20.035-0.534,29.422-1.539l12.041,14.027   c0.197,0.23,0.477,0.349,0.758,0.349c0.232,0,0.463-0.079,0.652-0.241c0.418-0.359,0.467-0.991,0.107-1.41L81.834,85.189   c3.227-0.378,6.377-0.811,9.422-1.303c1.156-0.146,1.965-1.003,1.965-2.083V15.4C93.221,6.765,74.236,0,50,0z M62.801,73.859   H37.199V19.219c0-1.854,1.509-3.363,3.364-3.363h18.875c1.855,0,3.363,1.509,3.363,3.363V73.859z M36.199,76.732   c0.508,0,0.909-0.383,0.975-0.873h25.653c0.066,0.49,0.467,0.873,0.975,0.873h13.027C68.217,77.57,59.15,78.006,50,78.006   c-9.15,0-18.216-0.436-26.828-1.273H36.199z M8.779,76.899C21.364,78.927,35.578,80.006,50,80.006   c14.422,0,28.637-1.079,41.221-3.106v1.468C78.656,80.412,64.434,81.498,50,81.498c-14.432,0-28.657-1.086-41.221-3.131V76.899z    M8.779,15.4C8.779,8.93,25.342,2,50,2c24.658,0,41.221,6.93,41.221,13.4v59.332h-26.42V19.219c0-2.957-2.406-5.363-5.363-5.363   H40.563c-2.958,0-5.364,2.406-5.364,5.363v55.514H8.779V15.4z M90.971,81.907C78.482,83.923,64.314,84.988,50,84.988   c-14.313,0-28.481-1.065-41.004-3.086c-0.136-0.018-0.207-0.072-0.217-0.099v-1.413C21.371,82.418,35.583,83.498,50,83.498   c14.418,0,28.629-1.08,41.221-3.107v1.422C91.211,81.83,91.139,81.885,90.971,81.907z"/><path d="M43.421,44.221h13.157c1.994,0,3.617-1.623,3.617-3.617V21.51c0-1.994-1.623-3.617-3.617-3.617H43.421   c-1.995,0-3.618,1.623-3.618,3.617v19.094C39.803,42.598,41.426,44.221,43.421,44.221z M41.803,21.51   c0-0.892,0.726-1.617,1.618-1.617h13.157c0.893,0,1.617,0.726,1.617,1.617v19.094c0,0.892-0.725,1.617-1.617,1.617H43.421   c-0.893,0-1.618-0.726-1.618-1.617V21.51z"/><path d="M44.545,40.479h10.91c0.553,0,1-0.447,1-1V22.635c0-0.553-0.447-1-1-1h-10.91c-0.553,0-1,0.447-1,1v16.844   C43.545,40.031,43.993,40.479,44.545,40.479z M45.545,23.635h8.91v14.844h-8.91V23.635z"/><path d="M52.197,91.954h-4.396c-0.662,0-1.201,0.538-1.201,1.199v2.297c0,0.663,0.539,1.202,1.201,1.202h4.396   c0.664,0,1.203-0.539,1.203-1.202v-2.297C53.4,92.492,52.861,91.954,52.197,91.954z M51.4,94.652h-2.8v-0.698h2.8V94.652z"/><path d="M16.125,45.203h11.347c2.957,0,5.363-2.406,5.363-5.363V19.438c0-2.981-2.406-5.18-5.459-4.768l-7.836,1.064l-0.811-2.133   c-0.195-0.517-0.772-0.773-1.29-0.58c-0.516,0.196-0.775,0.773-0.579,1.29l0.646,1.7l-0.833,0.113l-1.053-2.56   c-0.21-0.511-0.794-0.755-1.306-0.544c-0.511,0.209-0.754,0.794-0.544,1.305l0.922,2.241c-2.252,0.877-3.932,3.149-3.932,5.598   V39.84C10.76,42.797,13.167,45.203,16.125,45.203z M18.234,17.93l0.636,1.674l-0.727,0.098l-0.685-1.666L18.234,17.93z    M16.724,21.912l0.157-0.021l4.128,10.037c0.154,0.375,0.52,0.619,0.925,0.619h0.301l-0.504,4.59   c-0.061,0.549,0.336,1.043,0.885,1.104c0.037,0.004,0.074,0.006,0.11,0.006c0.504,0,0.937-0.379,0.993-0.891l0.528-4.809h0.227   c0.329,0,0.637-0.161,0.823-0.432s0.229-0.615,0.111-0.923l-0.785-2.067l0.631-5.744c0.061-0.55-0.336-1.043-0.885-1.104   c-0.558-0.057-1.043,0.336-1.104,0.885l-0.203,1.852l-1.431-3.768l5.459-0.741l0.002,18.956H16.502l-0.001-17.275   C16.518,22.098,16.659,21.938,16.724,21.912z M22.583,29.383l-0.097,0.879l-3.557-8.648l0.669-0.091L22.583,29.383z M12.76,22.165   c0-1.625,1.171-3.186,2.688-3.757l0.661,1.607c-0.889,0.295-1.607,1.219-1.607,2.149V39.84c0,0.895,0.728,1.621,1.622,1.621h11.347   c0.895,0,1.622-0.727,1.622-1.621l-0.002-20.47c0-0.55-0.521-0.997-1.07-1.001c-0.065,0.01-0.095,0.004-0.142,0.01l-6.977,0.947   l-0.635-1.672l7.377-1.002c0.149-0.021,0.297-0.031,0.441-0.031c1.593,0,2.748,1.185,2.748,2.816V39.84   c0,1.854-1.509,3.363-3.363,3.363H16.125c-1.855,0-3.364-1.509-3.364-3.363V22.165z"/><path d="M72.529,45.203h11.346c2.957,0,5.363-2.406,5.363-5.363V22.165c0-2.888-2.328-5.554-5.189-5.942L72.623,14.67   c-3.049-0.412-5.457,1.786-5.457,4.768V39.84C67.166,42.797,69.572,45.203,72.529,45.203z M69.166,19.438   c0-1.632,1.154-2.816,2.746-2.816c0.145,0,0.293,0.011,0.441,0.031l11.426,1.552c1.875,0.255,3.459,2.069,3.459,3.961V39.84   c0,1.854-1.508,3.363-3.363,3.363H72.529c-1.855,0-3.363-1.509-3.363-3.363V19.438z"/><path d="M27.798,47.485c-2.962,0-5.423,2.163-5.9,4.991h-9.756c-0.553,0-1,0.447-1,1s0.447,1,1,1h9.756   c0.478,2.828,2.938,4.992,5.9,4.992c3.303,0,5.99-2.688,5.99-5.992S31.101,47.485,27.798,47.485z M27.798,57.469   c-2.201,0-3.991-1.791-3.991-3.992s1.79-3.991,3.991-3.991c2.2,0,3.99,1.79,3.99,3.991S29.999,57.469,27.798,57.469z"/><path d="M27.798,50.48c-1.652,0-2.997,1.344-2.997,2.996s1.345,2.996,2.997,2.996s2.996-1.344,2.996-2.996   S29.451,50.48,27.798,50.48z M27.798,54.473c-0.55,0-0.997-0.447-0.997-0.996s0.447-0.996,0.997-0.996   c0.549,0,0.996,0.447,0.996,0.996S28.347,54.473,27.798,54.473z"/><path d="M72.201,59.468c2.963,0,5.424-2.163,5.9-4.991h9.756c0.553,0,1-0.447,1-1s-0.447-1-1-1h-9.756   c-0.477-2.828-2.938-4.99-5.9-4.99c-3.303,0-5.99,2.688-5.99,5.99C66.211,56.78,68.898,59.468,72.201,59.468z M72.201,49.486   c2.201,0,3.992,1.789,3.992,3.99s-1.791,3.991-3.992,3.991c-2.199,0-3.99-1.79-3.99-3.991S70.002,49.486,72.201,49.486z"/><path d="M26.925,61.451c-2.962,0-5.423,2.162-5.9,4.99h-8.883c-0.553,0-1,0.447-1,1s0.447,1,1,1h8.883   c0.478,2.828,2.938,4.99,5.9,4.99c3.304,0,5.991-2.688,5.991-5.99S30.229,61.451,26.925,61.451z M26.925,71.432   c-2.201,0-3.991-1.789-3.991-3.99s1.79-3.99,3.991-3.99s3.991,1.789,3.991,3.99S29.126,71.432,26.925,71.432z"/><path d="M72.201,56.473c1.652,0,2.996-1.344,2.996-2.996s-1.344-2.996-2.996-2.996s-2.996,1.344-2.996,2.996   S70.549,56.473,72.201,56.473z M72.201,52.48c0.549,0,0.996,0.447,0.996,0.996s-0.447,0.996-0.996,0.996s-0.996-0.447-0.996-0.996   S71.652,52.48,72.201,52.48z"/><path d="M60.217,45.488c0,2.935-3.914,3.911-7.582,4.597c-0.053,0.01-0.094,0.019-0.145,0.028   c-0.121-1.196-1.121-2.136-2.348-2.136c-1.228,0-2.229,0.939-2.349,2.136c-0.052-0.01-0.093-0.019-0.146-0.028   c-3.669-0.685-7.582-1.662-7.582-4.597c0-0.552-0.447-1-1-1s-1,0.448-1,1c0,4.842,5.994,5.961,9.214,6.563   c0.18,0.033,0.33,0.063,0.489,0.094v7.127c-0.043-0.008-0.076-0.014-0.12-0.022c-3.668-0.685-7.582-1.661-7.582-4.596   c0-0.552-0.447-1-1-1s-1,0.448-1,1c0,4.842,5.995,5.961,9.216,6.562c0.178,0.033,0.328,0.063,0.486,0.094v7.129   c-0.043-0.009-0.075-0.016-0.119-0.023c-3.669-0.686-7.583-1.662-7.583-4.597c0-0.552-0.447-1-1-1s-1,0.448-1,1   c0,4.841,5.995,5.961,9.216,6.563c0.181,0.033,0.332,0.063,0.491,0.094c0.028,1.284,1.077,2.321,2.369,2.321   c1.289,0,2.338-1.037,2.367-2.321c0.16-0.031,0.311-0.061,0.49-0.094c3.221-0.603,9.217-1.723,9.217-6.563c0-0.552-0.447-1-1-1   s-1,0.448-1,1c0,2.935-3.914,3.911-7.584,4.597c-0.043,0.008-0.076,0.015-0.119,0.023v-7.129c0.16-0.031,0.309-0.061,0.488-0.094   c3.221-0.601,9.215-1.72,9.215-6.562c0-0.552-0.447-1-1-1s-1,0.448-1,1c0,2.935-3.914,3.911-7.582,4.596   c-0.045,0.009-0.078,0.015-0.121,0.022v-7.127c0.16-0.031,0.311-0.061,0.488-0.094c3.221-0.602,9.215-1.721,9.215-6.563   c0-0.552-0.447-1-1-1S60.217,44.937,60.217,45.488z M50.514,70.424c0,0.205-0.166,0.372-0.371,0.372   c-0.207,0-0.373-0.167-0.373-0.372V50.35c0-0.205,0.166-0.372,0.373-0.372c0.205,0,0.371,0.167,0.371,0.372V70.424z"/><path d="M87.857,66.441h-8.883c-0.479-2.828-2.939-4.99-5.9-4.99c-3.303,0-5.992,2.688-5.992,5.99s2.689,5.99,5.992,5.99   c2.961,0,5.422-2.162,5.9-4.99h8.883c0.553,0,1-0.447,1-1S88.41,66.441,87.857,66.441z M73.074,71.432   c-2.201,0-3.992-1.789-3.992-3.99s1.791-3.99,3.992-3.99s3.99,1.789,3.99,3.99S75.275,71.432,73.074,71.432z"/><path d="M79.85,88.628h-3.824c-2.705,0-4.824,1.398-4.824,3.183c0,0.405-1.168,1.182-3,1.182H58.133V89.58   c0-0.881-0.717-1.597-1.598-1.597H43.464c-0.881,0-1.598,0.716-1.598,1.597v3.412H31.798c-1.832,0-3-0.776-3-1.182   c0-1.784-2.118-3.183-4.823-3.183h-3.824c-0.553,0-1,0.447-1,1s0.447,1,1,1h3.824c1.751,0,2.823,0.766,2.823,1.183   c0,1.813,2.149,3.182,5,3.182h10.068v3.41c0,0.881,0.717,1.598,1.598,1.598h13.071c0.881,0,1.598-0.717,1.598-1.598v-3.41h10.068   c2.852,0,5-1.368,5-3.182c0-0.417,1.072-1.183,2.824-1.183h3.824c0.553,0,1-0.447,1-1S80.402,88.628,79.85,88.628z M56.133,98   H43.867v-8.017h12.266V98z"/><path d="M26.925,64.445c-1.652,0-2.997,1.344-2.997,2.996s1.345,2.996,2.997,2.996c1.651,0,2.995-1.344,2.995-2.996   S28.577,64.445,26.925,64.445z M26.925,68.438c-0.55,0-0.997-0.447-0.997-0.996s0.447-0.996,0.997-0.996   c0.549,0,0.995,0.447,0.995,0.996S27.474,68.438,26.925,68.438z"/><path d="M73.074,64.445c-1.652,0-2.996,1.344-2.996,2.996s1.344,2.996,2.996,2.996s2.996-1.344,2.996-2.996   S74.727,64.445,73.074,64.445z M73.074,68.438c-0.549,0-0.996-0.447-0.996-0.996s0.447-0.996,0.996-0.996s0.996,0.447,0.996,0.996   S73.623,68.438,73.074,68.438z"/></g></svg>