<svg xmlns="http://www.w3.org/2000/svg" viewBox="0 0 512 512">
  <path fill="#a5c244" d="M414.5 7.5h-30v497h30c49.5 0 90-40.5 90-90v-317c0-49.5-40.5-90-90-90z"/>
  <path fill="#cfeb6b" d="M474.5 97.5v317c0 49.5-40.5 90-90 90h-287c-49.5 0-90-40.5-90-90v-317c0-49.5 40.5-90 90-90h287c49.5 0 90 40.5 90 90z"/>
  <path fill="#def1ff" d="M444.5 256l-109.48-32.73 54.27-100.56-100.56 54.27L256 67.5v377l32.73-109.48 100.56 54.27-54.27-100.56z"/>
  <path fill="#fff" d="M339.77 256l-48.65 14.55 24.12 44.69-44.69-24.12L256 444.5l-32.73-109.48-100.56 54.27 54.27-100.56L67.5 256l109.48-32.73-54.27-100.56 100.56 54.27L256 67.5l14.55 153.38 44.69-24.12-24.12 44.69z"/>
  <path d="M414.5 0h-317C43.738 0 0 43.738 0 97.5v317C0 468.262 43.738 512 97.5 512h317c53.762 0 97.5-43.738 97.5-97.5v-317C512 43.738 468.262 0 414.5 0zM497 414.5c0 45.49-37.01 82.5-82.5 82.5h-317C52.009 497 15 459.99 15 414.5v-317C15 52.01 52.009 15 97.5 15h317c45.49 0 82.5 37.01 82.5 82.5v317z"/>
  <path d="M446.648 248.814l-100.649-30.093 49.892-92.449c1.574-2.917 1.047-6.521-1.297-8.865-2.345-2.344-5.95-2.868-8.865-1.297l-92.449 49.891-30.094-100.649C262.236 62.176 259.314 60 256 60s-6.236 2.176-7.186 5.352l-30.093 100.649-92.449-49.891c-2.917-1.574-6.521-1.047-8.865 1.297-2.344 2.345-2.871 5.948-1.297 8.865l49.89 92.45-100.648 30.092C62.176 249.764 60 252.686 60 256s2.176 6.236 5.352 7.186l40.367 12.069c3.971 1.189 8.148-1.068 9.334-5.037 1.187-3.969-1.068-8.147-5.037-9.334L93.682 256l85.443-25.547c2.162-.646 3.917-2.231 4.781-4.315s.743-4.446-.329-6.432l-42.353-78.482 78.482 42.354c1.986 1.071 4.348 1.191 6.432.328 2.084-.863 3.669-2.619 4.315-4.78L256 93.682l25.547 85.443c.646 2.161 2.231 3.917 4.315 4.78 2.083.863 4.446.743 6.432-.328l78.482-42.354-42.354 78.482c-1.071 1.985-1.191 4.348-.328 6.432s2.619 3.669 4.78 4.315L418.318 256l-85.443 25.547c-2.161.646-3.917 2.231-4.78 4.315s-.743 4.446.328 6.432l42.354 78.482-78.482-42.354c-1.985-1.071-4.349-1.192-6.432-.328-2.084.863-3.669 2.619-4.315 4.78L256 418.318l-25.547-85.443c-.646-2.161-2.231-3.917-4.315-4.78-2.084-.864-4.446-.743-6.432.328l-78.482 42.354 42.353-78.482c1.072-1.985 1.192-4.348.329-6.432s-2.619-3.669-4.781-4.315l-40.367-12.069c-3.968-1.188-8.147 1.069-9.334 5.037-1.187 3.969 1.068 8.147 5.037 9.334l31.54 9.431-49.89 92.448c-1.574 2.917-1.047 6.521 1.297 8.865 2.343 2.343 5.946 2.868 8.865 1.297L218.722 346l30.093 100.649c.949 3.176 3.871 5.352 7.186 5.352s6.236-2.176 7.186-5.352L293.281 346l92.449 49.891c2.912 1.573 6.521 1.047 8.865-1.297 2.344-2.345 2.871-5.948 1.297-8.865L346 293.28l100.649-30.093c3.176-.949 5.352-3.871 5.352-7.186s-2.177-6.237-5.353-7.187z"/>
</svg>