<?xml version="1.0" standalone="no"?>
<!DOCTYPE svg PUBLIC "-//W3C//DTD SVG 20010904//EN"
 "http://www.w3.org/TR/2001/REC-SVG-20010904/DTD/svg10.dtd">
<svg version="1.0" xmlns="http://www.w3.org/2000/svg"
 width="190.000000pt" height="190.000000pt" viewBox="0 0 190.000000 190.000000"
 preserveAspectRatio="xMidYMid meet">
<metadata>
Created by potrace 1.11, written by Peter Selinger 2001-2013
</metadata>
<g transform="translate(0.000000,190.000000) scale(0.100000,-0.100000)"
fill="#000000" stroke="none">
<path d="M845 1890 c-216 -24 -420 -125 -571 -282 -125 -129 -207 -278 -251
-456 -25 -101 -22 -323 6 -426 49 -183 133 -327 265 -453 96 -92 173 -146 276
-190 226 -97 454 -106 682 -29 139 47 237 106 345 210 141 134 226 276 274
456 30 115 33 329 5 440 -24 97 -81 229 -131 305 -92 139 -264 286 -411 351
-136 61 -339 91 -489 74z m340 -39 c283 -75 518 -283 632 -561 43 -104 63
-213 63 -340 0 -246 -89 -467 -259 -643 -116 -122 -249 -202 -417 -253 -82
-26 -103 -28 -254 -28 -151 0 -173 2 -253 27 -319 98 -546 325 -644 644 -25
80 -27 102 -27 253 0 151 2 172 27 253 104 337 369 584 707 658 114 25 310 20
425 -10z"/>
<path d="M785 1845 c-33 -7 -73 -18 -90 -25 -16 -7 -35 -12 -41 -11 -6 1 -40
-12 -75 -29 -94 -45 -119 -60 -119 -71 0 -5 -9 -9 -21 -9 -13 0 -60 -39 -127
-108 -83 -83 -117 -126 -153 -192 -53 -99 -92 -198 -85 -216 3 -7 1 -16 -4
-19 -6 -4 -10 -11 -10 -17 0 -7 6 -6 15 2 8 7 15 9 15 5 0 -4 -10 -15 -22 -25
-21 -17 -23 -26 -25 -153 -1 -136 5 -183 44 -317 33 -112 118 -253 199 -330
25 -25 54 -53 63 -63 64 -72 326 -209 367 -193 7 3 16 1 20 -5 3 -6 12 -8 19
-5 7 2 18 -1 24 -7 8 -8 62 -12 169 -12 136 0 167 3 232 24 151 47 150 47 296
136 59 36 183 162 231 235 66 99 121 235 128 310 0 9 5 22 10 30 14 22 17 244
4 323 -6 38 -17 81 -25 95 -8 15 -14 36 -14 47 0 28 -50 131 -103 211 -56 85
-199 224 -275 267 -31 17 -59 31 -62 30 -3 -1 -12 5 -20 12 -22 20 -150 67
-166 61 -7 -3 -16 -1 -20 5 -3 6 -12 8 -19 5 -7 -2 -17 0 -23 6 -16 16 -265
18 -337 3z m100 -5 c4 -6 -6 -10 -22 -10 -15 0 -54 -6 -85 -14 -32 -7 -58 -10
-58 -5 0 9 16 14 90 28 63 12 68 12 75 1z m45 0 c0 -5 -4 -10 -10 -10 -5 0
-10 5 -10 10 0 6 5 10 10 10 6 0 10 -4 10 -10z m185 -11 c7 -9 1 -10 -24 -5
-18 3 -58 6 -87 6 -34 0 -54 4 -54 11 0 15 150 4 165 -12z m25 -34 c317 -73
568 -314 651 -627 26 -96 35 -265 19 -343 -6 -33 -13 -69 -15 -80 -5 -35 -36
-118 -66 -179 -63 -127 -168 -248 -290 -333 -62 -43 -63 -43 -150 -43 l-87 0
-26 72 c-27 72 -25 87 11 88 8 0 10 7 6 18 -6 15 -5 15 10 4 13 -12 22 -10 59
12 78 47 82 52 66 75 -14 20 -14 20 -43 -3 -25 -20 -28 -26 -16 -40 7 -9 9
-16 3 -16 -5 0 -12 7 -16 15 -3 8 -11 15 -17 15 -7 0 -9 -3 -6 -7 4 -3 2 -12
-5 -20 -9 -11 -7 -12 7 -7 13 5 16 4 11 -4 -10 -17 -36 -15 -36 3 0 8 5 15 12
15 6 0 8 3 5 6 -4 4 -13 1 -21 -6 -9 -6 -21 -10 -28 -8 -7 3 17 20 52 39 38
20 94 64 137 107 40 40 73 69 73 66 0 -4 6 -1 14 5 11 9 15 8 20 -5 9 -24 -3
-36 -21 -19 -8 9 -18 13 -22 10 -3 -4 3 -13 14 -21 18 -14 22 -13 42 13 16 20
19 29 10 35 -8 5 -7 8 4 8 18 0 43 46 33 61 -3 6 1 16 9 22 20 16 33 71 15 62
-7 -4 -6 -1 3 7 21 17 33 78 16 79 -9 0 -9 2 1 6 16 6 16 73 0 73 -9 0 -9 3 0
12 7 7 12 27 12 45 0 27 -3 31 -17 26 -17 -6 -17 -5 -2 13 13 16 14 24 5 47
-7 15 -16 24 -21 20 -4 -5 -3 0 2 11 7 13 7 28 0 46 -9 25 -13 27 -34 17 -18
-8 -21 -16 -17 -36 4 -21 2 -19 -11 8 -19 41 -19 42 0 35 8 -4 22 -1 30 6 13
11 13 16 -1 41 -14 28 -16 29 -41 15 -26 -13 -28 -12 -55 25 -29 40 -33 50
-20 48 38 -6 47 22 17 55 -15 17 -25 21 -28 13 -3 -7 -6 -2 -6 9 -1 22 -51 64
-51 44 0 -6 -5 -8 -10 -5 -6 4 -8 10 -5 15 3 5 -8 18 -24 29 -21 16 -31 18
-34 9 -3 -8 -6 -6 -6 5 -1 10 -13 22 -27 27 -21 9 -29 7 -40 -7 -18 -25 -17
-30 8 -36 12 -4 20 -9 17 -12 -3 -3 -21 1 -39 9 -32 13 -33 14 -12 25 26 14
19 39 -16 52 -18 7 -27 6 -33 -2 -5 -8 -9 -7 -15 3 -11 18 -64 30 -64 15 0 -7
-4 -7 -12 1 -16 16 -140 16 -156 0 -7 -7 -12 -8 -12 -2 0 18 -60 3 -71 -17 -7
-15 -6 -21 6 -25 25 -10 17 -20 -27 -34 -24 -7 -60 -21 -80 -31 -41 -21 -64
-17 -73 12 -6 19 -7 19 -36 -2 -24 -17 -27 -24 -19 -40 13 -23 28 -24 52 -2
10 9 20 14 22 12 3 -2 -24 -27 -59 -56 -62 -50 -63 -51 -82 -32 -19 19 -19 19
-41 -4 -26 -27 -21 -57 10 -57 19 0 19 -1 2 -30 -13 -21 -20 -26 -26 -17 -6 9
-8 9 -8 -1 0 -8 -6 -12 -12 -9 -19 6 -16 30 5 33 9 1 17 -2 17 -7 0 -6 5 -7
10 -4 16 10 12 21 -13 32 -21 10 -26 8 -40 -16 -19 -32 -8 -56 22 -48 23 6 24
5 15 -17 -5 -14 -9 -14 -34 -1 -25 13 -28 13 -40 -9 -7 -14 -9 -33 -5 -46 4
-14 3 -20 -3 -16 -5 3 -15 -8 -22 -24 -16 -39 1 -66 31 -49 15 8 19 6 19 -8 0
-10 -5 -25 -11 -33 -9 -13 -10 -12 -5 3 3 9 2 17 -2 17 -4 0 -16 3 -27 6 -17
4 -21 0 -23 -27 -1 -17 3 -38 9 -45 8 -10 8 -14 0 -14 -15 0 -14 -67 2 -73 6
-2 20 2 30 11 16 14 17 13 17 -11 0 -14 2 -34 5 -44 3 -10 0 -7 -7 7 -9 18
-20 24 -36 22 -18 -3 -21 -8 -16 -30 11 -44 24 -55 43 -38 15 14 18 10 35 -35
9 -28 19 -49 22 -46 2 2 -3 24 -12 48 -24 68 -29 211 -10 293 50 213 218 381
429 431 297 70 605 -119 682 -420 8 -32 15 -78 15 -101 l0 -42 -62 -4 c-44 -4
-68 -1 -78 8 -26 22 -51 107 -52 179 -1 81 -11 97 -48 78 -22 -11 -25 -11 -28
3 -3 14 -5 14 -15 0 -15 -19 -63 -26 -59 -8 1 6 -4 12 -12 12 -14 0 -26 66
-26 146 0 39 -18 94 -31 94 -4 0 -9 -9 -12 -20 -3 -14 0 -20 11 -20 8 0 13 -3
10 -6 -4 -3 -80 -16 -170 -29 -156 -23 -217 -29 -190 -18 14 5 17 43 3 43 -5
0 -15 -26 -21 -57 -51 -247 -135 -431 -260 -568 -25 -27 -36 -43 -25 -35 17
12 18 12 7 0 -7 -8 -25 -15 -40 -16 -15 -1 -37 -5 -48 -9 -23 -7 -21 -16 11
-65 5 -8 11 -26 13 -40 5 -47 9 -50 44 -39 43 12 45 12 23 -5 -18 -13 -18 -15
-2 -40 19 -29 19 -29 41 -20 20 8 21 38 1 54 -8 7 -15 16 -15 20 0 5 25 -16
55 -45 59 -58 154 -116 223 -136 41 -12 59 -30 25 -24 -10 1 -12 0 -5 -2 19
-7 9 -28 -14 -28 -14 0 -18 6 -16 22 2 13 -1 23 -7 23 -5 0 -11 -10 -13 -22
-2 -17 4 -26 24 -35 l28 -12 -24 -63 -24 -63 -107 -3 -106 -3 -67 45 c-182
121 -317 324 -362 544 -25 125 -25 221 -1 338 20 91 68 226 83 232 4 2 8 8 8
13 0 19 68 116 124 176 211 228 526 326 826 258z m139 -9 c30 -11 56 -26 58
-33 3 -7 -10 -5 -34 7 -21 10 -57 24 -80 31 -24 6 -43 16 -43 21 0 11 22 5 99
-26z m-579 14 c0 -5 -4 -10 -10 -10 -5 0 -10 5 -10 10 0 6 5 10 10 10 6 0 10
-4 10 -10z m-40 -10 c0 -5 -5 -10 -11 -10 -6 0 -40 -14 -76 -31 -35 -17 -67
-28 -70 -25 -6 5 133 76 149 76 4 0 8 -4 8 -10z m838 -128 c24 -19 41 -36 39
-39 -6 -6 -131 85 -136 99 -4 13 41 -15 97 -60z m-1008 44 c0 -3 -4 -8 -10
-11 -5 -3 -10 -1 -10 4 0 6 5 11 10 11 6 0 10 -2 10 -4z m-95 -71 c-58 -52
-80 -66 -73 -45 4 14 111 100 123 100 5 0 -17 -25 -50 -55z m1175 -35 c0 -5
-4 -10 -10 -10 -5 0 -10 5 -10 10 0 6 5 10 10 10 6 0 10 -4 10 -10z m-650 -35
c10 -13 9 -15 -9 -15 -12 0 -21 6 -21 15 0 8 4 15 9 15 5 0 14 -7 21 -15z m40
0 c0 -8 -4 -15 -10 -15 -5 0 -10 7 -10 15 0 8 5 15 10 15 6 0 10 -7 10 -15z
m54 -1 c3 -8 11 -12 17 -8 7 4 9 3 5 -4 -3 -6 3 -14 15 -17 29 -10 17 -17 -15
-9 -14 3 -23 10 -20 15 3 5 -7 9 -22 9 -22 0 -25 2 -14 15 16 19 26 19 34 -1z
m630 -40 c25 -31 46 -61 46 -68 -1 -6 -10 0 -21 14 -12 14 -36 42 -55 63 -36
41 -39 47 -25 47 5 0 29 -25 55 -56z m-1334 36 c0 -5 -5 -10 -11 -10 -5 0 -7
5 -4 10 3 6 8 10 11 10 2 0 4 -4 4 -10z m530 -4 c0 -8 -6 -17 -12 -19 -9 -4
-10 -6 -1 -6 6 -1 18 6 26 14 13 12 17 12 26 1 10 -12 6 -16 -19 -21 -33 -7
-60 7 -60 31 0 8 9 14 20 14 11 0 20 -6 20 -14z m250 -1 c0 -8 -9 -15 -20 -15
-20 0 -26 11 -13 23 12 13 33 7 33 -8z m80 -11 c0 -12 -21 -44 -30 -44 -5 0
-21 5 -37 11 -21 8 -24 12 -13 19 9 6 17 5 22 -3 6 -9 11 -7 19 6 9 16 39 25
39 11z m-907 -37 c-12 -12 -34 -43 -51 -69 -16 -26 -32 -45 -35 -41 -7 6 42
82 76 120 11 13 23 21 25 18 3 -3 -4 -15 -15 -28z m674 27 c-3 -3 -12 -4 -19
-1 -8 3 -5 6 6 6 11 1 17 -2 13 -5z m305 -37 c-2 -9 2 -17 8 -17 6 0 8 -4 5
-10 -3 -5 -1 -10 5 -10 6 0 13 7 16 15 5 11 11 12 25 4 17 -9 18 -12 4 -25
-20 -20 -19 -28 2 -20 10 4 14 4 10 0 -8 -8 31 -54 46 -54 6 0 0 11 -12 24
-26 28 -10 49 17 22 13 -13 13 -16 2 -16 -10 0 -11 -3 -3 -11 6 -6 9 -18 6
-25 -6 -17 9 -18 25 -2 8 8 15 8 27 -2 15 -12 14 -15 -6 -26 -20 -10 -29 -6
-87 43 -35 30 -75 59 -88 65 -16 8 -21 14 -13 19 8 4 5 11 -10 18 -24 13 -19
34 7 29 10 -2 16 -11 14 -21z m-638 -36 c3 -5 -1 -14 -8 -20 -16 -13 -32 2
-21 19 8 12 22 13 29 1z m1155 -118 c36 -74 45 -103 32 -103 -6 0 -11 6 -11
13 0 6 -14 41 -30 75 -31 66 -33 72 -25 72 3 0 18 -26 34 -57z m-1274 7 c9
-15 -14 -40 -31 -33 -7 3 -11 9 -8 14 3 5 9 7 14 4 5 -3 12 0 16 6 4 8 3 9 -4
5 -7 -4 -12 -2 -12 3 0 14 17 14 25 1z m-362 -91 c-29 -82 -31 -85 -38 -77 -6
5 26 103 45 138 23 43 20 12 -7 -61z m377 56 c-7 -9 -15 -13 -18 -10 -3 2 1
11 8 20 7 9 15 13 18 10 3 -2 -1 -11 -8 -20z m574 -8 c-3 -9 -11 -14 -18 -11
-6 2 -12 -4 -12 -15 0 -11 5 -17 13 -14 13 5 34 -36 26 -49 -9 -16 -23 -7 -39
23 -18 36 -12 76 14 81 22 5 24 4 16 -15z m18 -19 c-3 -14 -2 -19 6 -14 7 4
12 1 12 -10 0 -14 -2 -15 -17 -3 -10 7 -20 15 -22 16 -4 2 19 33 24 33 2 0 1
-10 -3 -22z m-177 -4 c-8 -9 -19 -12 -25 -9 -15 9 -5 20 19 22 19 2 20 0 6
-13z m75 5 c0 -5 5 -7 12 -3 8 5 9 2 4 -12 -4 -10 -8 -91 -7 -179 l1 -160 -25
47 c-34 65 -85 195 -85 218 0 61 51 99 82 60 18 -22 18 -22 18 -1 0 12 -4 21
-10 21 -5 0 -10 5 -10 10 0 6 5 10 10 10 6 0 10 -5 10 -11z m-170 -14 c-15
-18 1 -20 19 -2 6 6 3 -6 -8 -28 -11 -22 -24 -51 -29 -65 -8 -22 -9 -21 -10
13 -1 26 4 40 14 44 13 5 13 8 -1 23 -13 14 -13 19 -3 23 24 10 31 7 18 -8z
m-25 -25 c3 -5 1 -10 -4 -10 -6 0 -11 5 -11 10 0 6 2 10 4 10 3 0 8 -4 11 -10z
m-44 -52 c1 -29 0 -63 0 -75 -1 -11 2 -24 7 -27 5 -3 10 -47 11 -98 1 -50 5
-96 8 -101 3 -4 14 1 25 13 19 20 21 20 39 4 10 -9 19 -14 19 -9 0 4 -8 14
-17 21 -10 7 -15 16 -11 19 8 9 38 -19 38 -34 0 -6 7 -11 15 -11 26 0 28 -28
6 -66 -12 -20 -20 -38 -18 -41 3 -2 31 8 62 22 32 14 60 23 63 20 5 -5 -126
-69 -143 -70 -5 0 -21 -12 -33 -27 -13 -16 -28 -28 -34 -28 -6 0 8 20 30 44
22 24 50 62 61 85 l21 41 -22 -8 c-13 -5 -45 -10 -71 -11 -33 -2 -55 -9 -68
-22 -11 -11 -25 -19 -32 -16 -6 2 -28 -17 -48 -42 -20 -25 -47 -55 -59 -66
-13 -11 2 11 33 49 31 39 57 75 57 80 0 6 4 5 8 -2 6 -9 14 0 27 28 10 22 22
40 26 40 4 0 7 18 7 40 0 22 -2 40 -3 40 -2 0 -18 -33 -37 -72 -20 -40 -44
-83 -54 -95 -20 -23 -171 -86 -186 -77 -5 3 12 28 37 56 25 28 62 79 81 114
20 35 38 64 40 64 12 0 -61 -121 -102 -171 l-46 -54 49 51 c27 28 66 83 86
121 40 76 44 88 25 77 -7 -4 -8 -3 -4 5 4 6 11 9 15 7 8 -6 56 135 67 197 9
54 24 45 25 -15z m765 15 c-7 -17 -8 -17 -22 1 -8 11 -14 14 -14 7 0 -7 -4 -9
-10 -6 -5 3 -10 10 -10 15 0 10 19 8 37 -3 9 -6 11 -3 6 10 -5 14 -3 16 7 6 7
-7 10 -19 6 -30z m-396 -14 c0 -16 -4 -29 -10 -29 -5 0 -10 16 -10 36 0 21 4
33 10 29 6 -3 10 -19 10 -36z m-261 4 c1 -16 3 -82 5 -148 2 -66 2 -109 -1
-95 -3 14 -12 33 -20 43 -15 15 -14 19 3 38 17 19 18 21 1 30 -9 6 -17 17 -17
25 0 8 -4 12 -10 9 -5 -3 -10 -2 -10 4 0 5 5 13 10 16 6 4 8 11 5 16 -4 5 -1
9 5 9 7 0 9 -8 5 -19 -3 -11 0 -21 8 -24 10 -4 13 1 9 19 -2 13 -8 27 -13 30
-12 7 -11 44 1 44 6 0 10 7 10 15 0 8 2 15 5 15 2 0 4 -12 4 -27z m195 -6 c-1
-13 2 -14 16 -7 15 8 17 6 13 -10 -8 -30 -30 -24 -42 11 -8 23 -8 29 2 26 6
-2 11 -11 11 -20z m756 13 c0 -5 -4 -10 -10 -10 -5 0 -10 5 -10 10 0 6 5 10
10 10 6 0 10 -4 10 -10z m-1419 -14 c12 7 11 -7 -1 -26 -13 -21 -33 1 -23 25
4 11 8 14 11 7 2 -7 8 -10 13 -6z m11 -51 c-16 -41 -20 -45 -25 -26 -4 15 1
29 14 42 10 10 19 24 19 31 0 6 2 9 5 6 3 -3 -3 -27 -13 -53z m1437 -39 c13
-71 14 -96 2 -96 -4 0 -11 24 -14 53 -3 28 -9 68 -13 87 -4 23 -3 32 3 25 6
-5 15 -37 22 -69z m-293 52 c4 -6 -1 -17 -11 -25 -11 -7 -13 -13 -7 -13 7 0
12 -4 12 -8 0 -5 -7 -9 -16 -9 -11 0 -14 7 -10 21 3 12 6 27 6 34 0 15 16 16
26 0z m-466 -24 c0 -9 -5 -14 -12 -12 -18 6 -21 28 -4 28 9 0 16 -7 16 -16z
m40 -21 c0 -34 -1 -36 -16 -21 -13 12 -14 20 -5 37 16 30 21 26 21 -16z m181
23 c5 3 9 -2 9 -11 0 -9 -4 -14 -9 -10 -5 3 -11 -3 -14 -12 -2 -10 -4 -2 -4
17 0 19 2 29 4 22 3 -6 9 -10 14 -6z m-59 -14 c-9 -3 -9 -9 -1 -23 5 -11 9
-52 7 -92 l-3 -72 -24 50 c-13 28 -24 68 -25 90 -1 22 -5 44 -11 48 -5 4 2 5
18 1 17 -4 27 -2 27 6 0 6 5 8 12 4 9 -6 9 -9 0 -12z m-1170 -89 c-2 -46 -9
-83 -15 -83 -11 0 -4 141 8 160 12 19 13 8 7 -77z m298 74 c0 -19 -10 -27 -25
-20 -17 6 -8 33 11 33 8 0 14 -6 14 -13z m595 -149 c27 -52 30 -62 15 -53 -5
3 -10 1 -10 -4 0 -15 40 -14 41 2 1 6 0 29 -1 50 -1 20 3 37 9 37 6 0 10 -8 9
-17 -5 -66 15 -95 50 -72 16 10 15 10 0 5 -23 -7 -24 13 -1 21 9 4 19 1 21 -5
2 -7 12 -12 23 -12 10 0 19 -6 19 -14 0 -17 -75 -27 -90 -12 -7 7 -17 6 -30
-2 -33 -20 -89 -15 -111 11 -15 18 -18 39 -18 127 l0 105 25 -60 c13 -33 36
-81 49 -107z m87 130 c-9 -9 -12 -7 -12 12 0 19 3 21 12 12 9 -9 9 -15 0 -24z
m33 2 c3 -5 1 -10 -4 -10 -6 0 -11 5 -11 10 0 6 2 10 4 10 3 0 8 -4 11 -10z
m220 -21 c-5 -13 -2 -25 6 -29 9 -6 8 -12 -6 -26 -17 -17 -17 -17 -11 4 5 13
3 22 -3 22 -15 0 -14 18 2 35 17 20 19 18 12 -6z m237 -26 c7 -9 7 -13 0 -13
-12 0 -22 25 -21 48 1 13 3 12 6 -3 3 -11 10 -26 15 -32z m23 27 c0 -7 -6 -15
-12 -17 -8 -3 -13 4 -13 17 0 13 5 20 13 18 6 -3 12 -11 12 -18z m-730 -1 c11
-17 -1 -21 -15 -4 -8 9 -8 15 -2 15 6 0 14 -5 17 -11z m285 -33 c0 -33 -10
-57 -21 -50 -5 3 -9 10 -9 15 0 6 6 7 13 3 9 -6 9 -4 -1 8 -13 16 -7 48 9 48
5 0 9 -11 9 -24z m-60 0 c0 -8 2 -20 3 -28 2 -7 2 -10 0 -5 -3 4 -9 5 -14 1
-5 -3 -9 6 -9 20 0 14 5 26 10 26 6 0 10 -6 10 -14z m-710 -14 c0 -10 -7 -19
-15 -19 -17 0 -17 0 -9 21 8 22 24 20 24 -2z m468 -43 c-7 -4 -4 -8 6 -10 15
-4 15 -6 -3 -21 -19 -16 -19 -15 -16 18 1 19 -2 34 -6 34 -5 0 -9 8 -9 18 0
14 4 12 20 -8 12 -16 15 -27 8 -31z m719 19 c-3 -8 -6 -5 -6 6 -1 11 2 17 5
13 3 -3 4 -12 1 -19z m-297 -85 c0 -2 -11 -3 -25 -3 -24 0 -25 3 -24 53 l0 52
25 -49 c13 -28 24 -51 24 -53z m335 77 c0 -7 -6 -15 -12 -17 -8 -3 -13 4 -13
17 0 13 5 20 13 18 6 -3 12 -11 12 -18z m-1205 -27 c0 -27 -3 -34 -9 -23 -6 8
-7 18 -5 22 3 4 0 8 -7 8 -8 0 -8 4 1 15 18 22 20 19 20 -22z m1007 -35 c14
-15 13 -16 -13 -9 -25 6 -29 13 -32 47 l-2 39 16 -30 c9 -16 23 -38 31 -47z
m-87 52 c0 -5 -4 -10 -10 -10 -5 0 -10 5 -10 10 0 6 5 10 10 10 6 0 10 -4 10
-10z m30 0 c0 -5 -4 -10 -10 -10 -5 0 -10 5 -10 10 0 6 5 10 10 10 6 0 10 -4
10 -10z m530 0 c0 -5 -4 -10 -10 -10 -5 0 -10 5 -10 10 0 6 5 10 10 10 6 0 10
-4 10 -10z m-760 -16 c0 -14 3 -14 15 -4 12 10 15 10 15 -3 0 -16 -16 -17 -37
-4 -15 10 -17 27 -3 27 6 0 10 -7 10 -16z m461 -12 c-6 -2 -9 -7 -7 -11 3 -4
1 -13 -5 -21 -6 -11 -9 -4 -9 24 0 34 2 37 16 25 10 -8 12 -15 5 -17z m-492
-23 c-13 -26 -23 -18 -14 10 3 12 11 19 16 16 5 -4 5 -14 -2 -26z m-709 1 c0
-11 -7 -20 -15 -20 -15 0 -21 21 -8 33 12 13 23 7 23 -13z m376 -37 c-14 -26
-25 -45 -26 -41 0 12 43 98 48 94 2 -2 -8 -26 -22 -53z m1119 -60 c-3 -29 -11
-53 -17 -53 -5 0 -7 12 -4 28 3 15 6 50 7 77 1 28 5 55 8 60 9 16 13 -55 6
-112z m-547 82 c-3 -3 -9 2 -12 12 -6 14 -5 15 5 6 7 -7 10 -15 7 -18z m-1228
5 c0 -5 -4 -10 -10 -10 -5 0 -10 5 -10 10 0 6 5 10 10 10 6 0 10 -4 10 -10z
m1443 3 c-7 -2 -19 -2 -25 0 -7 3 -2 5 12 5 14 0 19 -2 13 -5z m65 -16 c2 -10
-3 -17 -12 -17 -10 0 -16 9 -16 21 0 24 23 21 28 -4z m-313 -17 c-3 -5 -11
-10 -16 -10 -23 0 -157 -69 -202 -104 -61 -47 -74 -41 -15 7 46 37 119 78 183
101 49 18 58 19 50 6z m280 -27 c-8 -8 -15 -19 -15 -25 0 -6 -3 -9 -6 -5 -3 3
-3 20 1 37 5 25 9 29 21 19 11 -9 11 -13 -1 -26z m-1467 -55 c13 -88 9 -114
-7 -52 -16 65 -24 134 -14 134 5 0 14 -37 21 -82z m1432 73 c0 -6 -15 -7 -33
-4 -83 13 -229 -44 -310 -122 -59 -56 -75 -59 -22 -4 57 58 120 99 184 120 59
19 181 25 181 10z m-489 -48 c-34 -67 -53 -81 -20 -15 17 35 33 61 36 59 2 -3
-5 -22 -16 -44z m-664 3 c-4 -9 -11 -16 -17 -16 -11 0 -14 33 -3 44 11 10 26
-11 20 -28z m1213 -6 c0 -11 -7 -20 -15 -20 -8 0 -15 9 -15 20 0 11 7 20 15
20 8 0 15 -9 15 -20z m-735 -18 c-18 -17 -185 -101 -185 -94 0 9 31 29 110 69
63 32 94 42 75 25z m699 -8 c3 -8 2 -13 -3 -10 -12 8 -23 -41 -16 -65 5 -14 3
-17 -9 -13 -10 4 -16 1 -16 -7 0 -7 -2 -10 -5 -7 -4 4 4 35 30 106 6 16 12 15
19 -4z m12 -71 c-12 -12 -29 15 -21 34 7 17 8 16 18 -5 5 -12 7 -25 3 -29z
m284 17 c0 -5 -4 -10 -10 -10 -5 0 -10 5 -10 10 0 6 5 10 10 10 6 0 10 -4 10
-10z m-840 -85 l0 -55 -47 1 c-27 0 -42 3 -35 6 7 3 12 23 12 47 0 50 4 56 42
56 27 0 28 -1 28 -55z m468 38 c12 -12 13 -18 4 -21 -6 -2 -13 -16 -14 -30 0
-17 -4 -10 -8 18 -7 45 -7 45 -8 8 -1 -20 -6 -39 -10 -42 -4 -3 -53 -6 -108
-7 -95 -2 -99 -1 -102 20 -5 31 -56 26 -60 -6 -3 -18 -10 -23 -34 -23 -55 0
-113 53 -80 74 4 2 93 8 197 11 105 4 192 9 194 11 7 7 12 5 29 -13z m362 10
c1 -18 -55 -153 -63 -153 -5 0 -6 8 -2 18 4 9 17 45 29 79 11 35 24 63 29 63
4 0 7 -3 7 -7z m-800 -34 c-12 -41 -24 -53 -14 -14 7 32 13 45 19 45 2 0 0
-14 -5 -31z m-910 11 c0 -5 -4 -10 -10 -10 -5 0 -10 5 -10 10 0 6 5 10 10 10
6 0 10 -4 10 -10z m283 -10 c3 -11 1 -20 -4 -20 -5 0 -9 9 -9 20 0 11 2 20 4
20 2 0 6 -9 9 -20z m27 -42 c0 -75 -6 -73 -14 5 -4 36 -3 57 4 57 6 0 10 -27
10 -62z m58 5 l-1 -58 -7 55 -6 55 -5 -44 c-6 -61 -29 -67 -29 -8 0 44 4 50
43 56 4 0 6 -25 5 -56z m152 7 c0 -27 -4 -50 -10 -50 -5 0 -7 8 -3 18 5 16 5
16 -8 0 -18 -21 -59 -7 -59 21 0 36 10 48 36 43 14 -2 24 0 24 7 0 6 5 11 10
11 6 0 10 -22 10 -50z m270 20 c0 -10 -4 -22 -10 -25 -6 -4 -10 7 -10 25 0 18
4 29 10 25 6 -3 10 -15 10 -25z m614 -11 c-5 -8 -10 -6 -16 5 -5 9 -6 21 -2
27 5 8 10 6 16 -5 5 -9 6 -21 2 -27z m-974 -14 c0 -41 -2 -45 -25 -45 -23 0
-25 4 -25 45 0 41 2 45 25 45 23 0 25 -4 25 -45z m330 17 c0 -21 -7 -32 -25
-40 -43 -20 -73 -15 -77 11 -2 16 -11 23 -30 25 -24 3 -28 0 -28 -22 0 -23 -4
-26 -35 -26 -34 0 -35 1 -35 40 l0 40 115 0 115 0 0 -28z m-750 -14 c0 -7 14
-42 30 -77 38 -81 31 -93 -8 -15 -37 75 -46 104 -33 104 6 0 11 -6 11 -12z
m1071 5 c-11 -5 -11 -7 0 -14 12 -8 11 -11 -1 -19 -10 -6 -11 -10 -2 -10 19 0
14 -20 -5 -21 -11 0 -13 -3 -5 -6 6 -2 12 -9 12 -15 0 -6 -7 -7 -16 -4 -12 5
-14 1 -8 -16 5 -17 3 -20 -11 -14 -14 5 -16 4 -7 -7 13 -15 7 -27 -11 -23 -7
2 -9 1 -4 -1 16 -10 6 -21 -18 -19 -14 0 -25 2 -25 4 0 1 13 21 30 43 16 23
32 58 36 78 8 46 12 51 32 50 12 0 13 -2 3 -6z m-425 -54 c8 -26 27 -61 44
-79 32 -34 37 -54 18 -66 -8 -5 -9 -2 -5 10 5 13 3 17 -7 13 -8 -3 -21 2 -30
12 -13 14 -13 20 -3 30 10 11 8 12 -10 6 -24 -7 -33 9 -10 18 7 3 5 6 -5 6
-21 1 -24 17 -5 24 7 3 5 6 -5 6 -21 1 -24 17 -5 24 7 3 5 6 -5 6 -20 1 -25
21 -5 21 8 0 7 4 -3 11 -13 8 -12 10 4 7 13 -2 23 -18 32 -49z m374 -16 c8 -8
-25 -23 -51 -23 -15 0 -32 7 -39 15 -10 13 -9 15 9 15 12 0 32 -5 43 -11 11
-6 18 -7 15 -2 -3 5 -24 18 -47 28 -22 10 -40 22 -40 27 0 7 95 -35 110 -49z
m-250 42 c0 -2 -20 -16 -45 -31 -44 -25 -64 -45 -26 -24 27 14 64 13 59 -2 -6
-17 -83 -17 -83 0 0 7 18 23 40 37 39 24 55 30 55 20z m148 -59 c16 -19 41
-67 55 -107 13 -41 41 -118 60 -171 33 -89 34 -98 18 -98 -15 0 -30 32 -76
163 -69 196 -67 191 -105 207 -28 11 -34 11 -58 -7 -21 -16 -38 -54 -83 -189
-40 -121 -60 -170 -72 -172 -9 -2 -17 0 -17 4 0 4 25 84 57 178 65 196 85 226
151 226 33 0 45 -6 70 -34z m182 9 c0 -8 -4 -15 -10 -15 -5 0 -10 7 -10 15 0
8 5 15 10 15 6 0 10 -7 10 -15z m50 5 c0 -5 -4 -10 -10 -10 -5 0 -10 5 -10 10
0 6 5 10 10 10 6 0 10 -4 10 -10z m-660 -35 c-13 -14 -26 -23 -28 -20 -3 3 5
16 18 30 13 14 26 23 28 20 3 -3 -5 -16 -18 -30z m120 14 c0 -5 -7 -9 -15 -9
-15 0 -20 12 -9 23 8 8 24 -1 24 -14z m-70 1 c0 -5 -4 -10 -10 -10 -5 0 -10 5
-10 10 0 6 5 10 10 10 6 0 10 -4 10 -10z m-157 -37 c-5 -13 -7 -13 -21 0 -8 8
-11 20 -7 27 10 16 35 -7 28 -27z m477 -13 c0 -38 -4 -50 -15 -50 -11 0 -15
12 -15 50 0 38 4 50 15 50 11 0 15 -12 15 -50z m770 26 c0 -3 -4 -8 -10 -11
-5 -3 -10 -1 -10 4 0 6 5 11 10 11 6 0 10 -2 10 -4z m-1045 -56 c-16 -16 -31
-28 -34 -25 -2 3 8 19 24 35 16 16 31 28 34 25 2 -3 -8 -19 -24 -35z m1019 8
c-10 -17 -60 -88 -79 -112 -8 -11 -18 -17 -21 -13 -3 3 9 25 29 49 19 24 40
53 46 66 6 12 16 22 22 22 6 0 7 -6 3 -12z m-1519 -8 c3 -5 1 -10 -4 -10 -6 0
-11 5 -11 10 0 6 2 10 4 10 3 0 8 -4 11 -10z m845 -36 c0 -17 -16 -19 -23 -1
-3 7 -6 5 -6 -5 -1 -21 -17 -24 -24 -5 -3 6 -6 3 -7 -8 -1 -20 -1 -20 -15 -1
-13 17 -15 18 -15 3 0 -9 -4 -17 -10 -17 -5 0 -10 8 -10 18 0 14 -2 15 -10 2
-9 -13 -11 -13 -19 -1 -8 12 -11 9 -16 -12 -4 -15 -11 -27 -16 -27 -11 0 -12
14 -1 24 4 4 8 12 8 17 1 5 2 13 3 19 0 5 19 7 44 4 23 -2 56 -1 72 4 34 10
45 7 45 -14z m260 -19 c-10 -12 -16 -13 -27 -3 -13 10 -12 14 3 25 24 17 42 0
24 -22z m-1024 -58 c36 -41 39 -47 25 -47 -12 0 -101 109 -101 124 1 6 10 0
21 -14 12 -14 36 -42 55 -63z m774 43 c0 -5 -4 -10 -10 -10 -5 0 -10 5 -10 10
0 6 5 10 10 10 6 0 10 -4 10 -10z m-114 -10 c8 0 14 -4 14 -9 0 -5 -13 -9 -30
-9 -19 1 -30 6 -30 16 0 9 6 12 16 8 9 -3 22 -6 30 -6z m80 -6 c-5 -13 -2 -15
13 -11 12 3 22 -1 26 -11 7 -19 10 -16 -53 -41 -62 -25 -77 -26 -42 -5 24 14
24 15 3 11 -18 -4 -23 -1 -23 14 0 15 6 19 33 17 28 -3 32 0 29 20 -2 12 2 22
8 22 7 0 9 -7 6 -16z m-26 -4 c0 -5 -7 -10 -15 -10 -8 0 -15 5 -15 10 0 6 7
10 15 10 8 0 15 -4 15 -10z m-64 -50 c0 -16 -3 -27 -8 -24 -4 3 -8 14 -8 25 0
10 -4 19 -8 19 -5 0 -8 -10 -8 -22 1 -27 37 -69 51 -59 14 11 105 41 125 41
11 0 23 -20 37 -65 21 -63 21 -65 2 -65 -14 0 -19 7 -19 25 l0 25 -102 -2
-103 -2 83 -3 c74 -3 82 -6 82 -24 0 -19 -6 -20 -104 -18 -84 1 -103 4 -99 15
3 8 0 14 -6 14 -6 0 -11 -7 -11 -15 0 -8 -8 -15 -19 -15 -17 0 -17 2 3 60 13
38 27 60 36 60 9 0 21 5 27 11 12 12 7 39 -8 39 -4 0 -6 -6 -3 -14 3 -8 0 -17
-6 -21 -18 -11 -22 0 -10 27 9 19 17 23 44 20 28 -3 32 -8 32 -32z m674 0 c0
-5 -4 -10 -10 -10 -5 0 -10 5 -10 10 0 6 5 10 10 10 6 0 10 -4 10 -10z m-65
-67 c-50 -44 -84 -67 -90 -61 -6 6 119 107 125 101 3 -3 -13 -21 -35 -40z
m-1195 27 c0 -5 -4 -10 -10 -10 -5 0 -10 5 -10 10 0 6 5 10 10 10 6 0 10 -4
10 -10z m40 -34 c6 -8 34 -29 61 -46 52 -34 69 -63 19 -34 -41 25 -117 93
-104 94 6 0 17 -7 24 -14z m700 -40 c0 -3 -4 -8 -10 -11 -5 -3 -10 -1 -10 4 0
6 5 11 10 11 6 0 10 -2 10 -4z m306 -55 c-6 -9 -97 -54 -133 -65 -14 -5 -23
-3 -23 3 0 6 6 11 13 11 6 0 39 13 72 29 64 31 79 36 71 22z m-96 -16 c-20
-12 -87 -14 -350 -14 -263 0 -330 2 -350 14 -22 13 20 14 350 14 330 0 372 -1
350 -14z m-647 -36 c37 -13 67 -27 67 -32 0 -9 -17 -5 -97 25 -29 11 -56 24
-59 30 -4 6 -1 8 7 5 8 -3 44 -16 82 -28z m567 -19 c0 -5 -4 -10 -10 -10 -5 0
-10 5 -10 10 0 6 5 10 10 10 6 0 10 -4 10 -10z m-46 -19 c-8 -8 -122 -31 -152
-31 -7 0 -12 5 -12 10 0 6 17 10 38 11 20 0 57 6 82 13 47 12 60 12 44 -3z
m-414 -1 c0 -5 -4 -10 -10 -10 -5 0 -10 5 -10 10 0 6 5 10 10 10 6 0 10 -4 10
-10z m136 -10 c34 0 54 -4 54 -11 0 -16 -148 -5 -164 12 -8 9 -3 10 23 5 18
-3 58 -6 87 -6z m94 -10 c0 -5 -4 -10 -10 -10 -5 0 -10 5 -10 10 0 6 5 10 10
10 6 0 10 -4 10 -10z"/>
<path d="M867 1768 c4 -13 8 -49 8 -81 0 -43 3 -56 13 -52 8 3 17 5 21 5 4 0
4 26 0 58 -5 31 -6 65 -3 75 4 13 -1 17 -21 17 -23 0 -25 -3 -18 -22z"/>
<path d="M960 1770 c-45 -45 -18 -140 39 -140 22 0 58 26 49 36 -4 4 -14 1
-23 -6 -13 -11 -19 -10 -35 5 -26 23 -25 56 0 86 l20 24 20 -24 c24 -28 30
-26 23 9 -6 34 -63 40 -93 10z"/>
<path d="M794 1765 c3 -8 9 -22 12 -30 9 -21 -10 -19 -31 5 -23 26 -70 28 -60
3 15 -38 32 -109 28 -120 -3 -8 4 -13 16 -13 22 0 27 10 12 26 -5 5 -12 25
-16 44 l-7 35 28 -25 c16 -13 37 -33 47 -44 26 -28 30 -15 13 49 -8 31 -12 63
-9 71 3 9 -2 14 -17 14 -16 0 -20 -4 -16 -15z"/>
<path d="M1108 1696 c-36 -51 -43 -66 -31 -70 21 -8 23 -8 23 8 0 8 4 17 9 20
16 10 42 -6 39 -23 -2 -11 16 -26 62 -48 l65 -32 20 21 20 20 -25 -5 c-50 -12
-56 6 -22 67 29 53 29 57 12 66 -25 13 -31 13 -28 -2 4 -17 -40 -118 -51 -118
-15 0 -21 29 -21 96 0 45 -4 64 -13 64 -7 0 -33 -29 -59 -64z m38 -23 c-11
-11 -19 6 -11 24 8 17 8 17 12 0 3 -10 2 -21 -1 -24z"/>
<path d="M637 1729 c-15 -9 -16 -12 -2 -25 19 -19 19 -28 -1 -45 -13 -10 -17
-10 -25 2 -5 8 -9 22 -9 32 0 20 -4 21 -30 7 -19 -10 -18 -12 5 -46 14 -20 27
-51 31 -70 7 -38 7 -38 35 -23 18 9 19 13 6 27 -27 32 -28 41 -6 53 25 13 39
-1 39 -38 0 -26 3 -27 30 -13 17 9 17 13 -11 62 -16 29 -29 61 -29 71 0 19 -7
21 -33 6z"/>
<path d="M477 1644 c-38 -20 -38 -80 -1 -118 30 -30 59 -33 92 -10 22 15 31
54 12 54 -5 0 -10 -6 -10 -14 0 -8 -10 -18 -22 -22 -17 -5 -28 0 -45 21 -32
37 -27 70 10 70 31 -1 35 10 9 24 -12 6 -26 5 -45 -5z"/>
<path d="M1345 1610 c-7 -12 2 -30 16 -30 5 0 9 9 9 20 0 21 -15 27 -25 10z"/>
<path d="M1440 1609 c0 -17 -62 -89 -77 -89 -18 0 -16 -10 5 -26 22 -17 32
-17 32 0 0 7 7 19 16 26 12 11 18 10 31 -3 13 -13 14 -19 3 -31 -7 -9 -19 -16
-26 -16 -19 0 -18 -10 4 -26 21 -16 32 -17 32 -3 0 17 62 89 77 89 19 0 16 18
-6 30 -26 14 -28 13 -34 -11 -4 -13 -12 -20 -24 -17 -26 5 -29 38 -4 45 26 7
27 19 2 33 -25 13 -31 13 -31 -1z"/>
<path d="M745 1562 c-11 -2 -28 -14 -37 -25 -10 -12 -18 -16 -18 -9 0 10 -7 9
-30 -3 -31 -16 -42 -55 -15 -55 25 0 65 23 58 33 -4 6 0 8 10 4 17 -6 68 11
66 22 -2 22 -17 36 -34 33z m15 -26 c0 -14 -29 -31 -38 -22 -2 3 -2 12 1 21 8
19 37 20 37 1z m-84 -33 c-2 -9 -8 -19 -13 -20 -17 -6 -27 18 -12 28 21 13 28
11 25 -8z"/>
<path d="M337 1524 c-19 -22 -24 -34 -15 -34 17 0 88 -71 88 -88 0 -19 13 -14
53 24 32 30 36 37 26 56 -11 20 -12 20 -26 -11 -17 -34 -34 -39 -54 -15 -11
14 -10 18 5 30 18 13 18 14 2 20 -11 4 -21 1 -27 -7 -6 -11 -11 -11 -20 -2
-15 15 4 43 30 43 14 0 14 2 1 10 -23 15 -33 11 -63 -26z"/>
<path d="M1560 1507 c0 -12 -50 -60 -99 -94 -3 -2 2 -11 11 -19 14 -15 20 -12
58 30 23 25 49 46 56 46 20 0 17 14 -6 35 -17 16 -20 16 -20 2z"/>
<path d="M247 1414 c-21 -36 -25 -49 -16 -60 15 -18 30 -18 23 1 -3 8 -3 19 1
25 7 11 90 -41 98 -62 4 -9 10 -7 21 6 20 25 20 36 1 36 -18 0 -95 49 -95 61
0 4 10 11 23 15 21 7 21 7 2 15 -11 4 -22 8 -25 8 -3 0 -18 -20 -33 -45z"/>
<path d="M513 1423 c-27 -18 -30 -48 -6 -57 11 -4 25 2 40 17 23 22 23 24 6
39 -16 14 -20 14 -40 1z m31 -12 c3 -4 -4 -17 -16 -27 -12 -11 -18 -13 -14 -6
4 7 2 12 -5 12 -8 0 -8 4 1 15 14 17 26 19 34 6z"/>
<path d="M1000 1420 c0 -11 7 -20 15 -20 13 0 14 4 5 20 -6 11 -13 20 -15 20
-3 0 -5 -9 -5 -20z"/>
<path d="M840 1402 c0 -16 -6 -22 -22 -22 -12 0 -19 -3 -15 -6 11 -12 55 6 53
21 -4 24 -16 30 -16 7z"/>
<path d="M1545 1395 c-30 -29 -31 -50 -5 -92 l19 -32 33 17 c18 9 35 18 37 20
3 1 -3 10 -12 19 -16 16 -18 16 -31 -2 -11 -15 -18 -17 -26 -9 -30 29 35 94
73 73 9 -6 17 -22 17 -36 0 -21 2 -24 15 -13 20 17 19 32 -5 58 -29 31 -83 30
-115 -3z"/>
<path d="M958 1393 c6 -2 18 -2 25 0 6 3 1 5 -13 5 -14 0 -19 -2 -12 -5z"/>
<path d="M878 1383 c6 -2 18 -2 25 0 6 3 1 5 -13 5 -14 0 -19 -2 -12 -5z"/>
<path d="M1437 1326 c-18 -14 -18 -16 -2 -40 19 -28 34 -33 53 -14 8 8 7 18
-6 40 -19 32 -20 32 -45 14z m37 -23 c10 -25 -10 -39 -23 -15 -10 19 -6 32 10
32 4 0 10 -8 13 -17z"/>
<path d="M265 1300 c-7 -12 2 -30 16 -30 12 0 12 27 0 35 -5 3 -12 1 -16 -5z"/>
<path d="M1690 1301 c0 -10 -90 -46 -107 -43 -15 3 -17 -17 -3 -38 7 -12 12
-12 29 4 22 20 51 15 51 -8 0 -18 -29 -35 -47 -29 -14 5 -17 -15 -5 -34 5 -9
23 -4 66 17 33 15 65 26 73 23 16 -6 17 2 3 28 -10 18 -12 18 -35 3 -22 -14
-24 -14 -35 6 -13 25 -9 32 23 36 12 1 23 3 25 3 1 1 -2 10 -8 21 -11 20 -30
27 -30 11z"/>
<path d="M160 1240 c0 -5 0 -13 0 -17 1 -5 9 -7 20 -5 34 5 31 -16 -4 -28 -31
-10 -46 -26 -46 -51 0 -6 5 -7 10 -4 15 9 120 -24 120 -37 0 -15 17 1 22 20 2
9 -10 15 -36 17 -57 6 -65 21 -19 36 21 7 47 13 58 14 36 3 18 19 -39 35 -30
8 -58 18 -62 23 -10 10 -24 9 -24 -3z"/>
<path d="M1685 1110 c-7 -12 2 -30 16 -30 5 0 9 9 9 20 0 21 -15 27 -25 10z"/>
<path d="M120 1081 c0 -12 9 -21 25 -25 34 -9 32 -26 -4 -26 -23 0 -30 -5 -33
-25 -6 -29 -3 -30 47 -9 21 8 54 14 74 12 30 -2 36 0 39 18 3 18 -1 21 -23 16
-19 -3 -39 4 -70 27 -51 36 -55 37 -55 12z"/>
<path d="M1654 1048 c-14 -7 -20 -19 -21 -46 -2 -51 12 -72 47 -72 23 0 35 8
50 33 11 17 22 37 24 42 2 6 7 7 11 3 5 -5 3 -19 -3 -33 -13 -27 -6 -31 18
-12 11 8 14 23 10 47 -4 31 -9 35 -34 35 -19 0 -33 -7 -40 -20 -36 -68 -37
-68 -53 -52 -14 14 -14 19 1 48 19 38 18 40 -10 27z"/>
<path d="M225 963 c20 -48 18 -50 -29 -57 -26 -4 -55 -4 -66 -1 -16 5 -20 2
-20 -19 0 -24 2 -25 33 -18 17 4 53 7 79 7 l47 0 -2 42 c-2 33 -7 44 -26 53
-21 9 -23 9 -16 -7z"/>
<path d="M1653 895 c-25 -18 -33 -43 -22 -73 12 -33 27 -27 25 11 -1 31 0 32
43 32 58 0 78 -26 42 -56 l-23 -19 30 0 c24 0 31 5 35 26 7 40 -3 63 -34 79
-36 19 -69 19 -96 0z"/>
<path d="M215 828 c-30 -22 -47 -28 -68 -24 -23 5 -28 3 -25 -12 2 -11 11 -16
25 -14 12 2 24 -2 28 -8 4 -6 -4 -10 -20 -10 -23 0 -25 -3 -19 -22 9 -30 14
-35 22 -21 9 14 100 36 119 29 14 -6 17 12 5 31 -6 10 -15 10 -40 1 -33 -13
-56 -3 -32 13 8 5 27 12 41 15 20 5 25 11 22 25 -8 29 -15 29 -58 -3z"/>
<path d="M343 792 c-15 -10 -5 -59 15 -67 23 -9 35 9 27 44 -7 31 -19 38 -42
23z m37 -38 c0 -8 -7 -14 -15 -14 -15 0 -21 21 -9 33 10 9 24 -2 24 -19z"/>
<path d="M1616 775 c-9 -25 -7 -33 7 -32 35 1 47 -5 47 -22 0 -29 -17 -35 -45
-17 -31 21 -32 20 -37 -9 -4 -19 -1 -25 12 -25 27 0 103 -29 112 -43 8 -14 13
-9 22 21 6 19 4 22 -17 22 -30 0 -36 6 -30 31 6 21 33 25 51 7 13 -13 17 -11
26 18 5 17 2 21 -21 21 -23 0 -75 19 -114 40 -4 2 -9 -3 -13 -12z"/>
<path d="M231 707 c-13 -6 -33 -25 -45 -40 -19 -26 -19 -30 -5 -55 20 -37 93
-44 127 -12 28 26 29 73 2 100 -23 23 -45 25 -79 7z m73 -36 c19 -30 -61 -78
-98 -59 -19 10 -18 12 12 39 32 28 75 38 86 20z"/>
<path d="M1546 618 c-9 -12 -16 -35 -16 -50 0 -57 112 -92 144 -46 23 33 20
56 -13 89 -37 37 -92 40 -115 7z m74 -23 c38 -20 57 -53 35 -61 -22 -9 -57 2
-83 26 -18 17 -21 25 -11 36 15 18 23 18 59 -1z"/>
<path d="M1401 564 c-11 -14 -18 -30 -15 -35 3 -5 2 -8 -3 -7 -17 5 -53 -23
-53 -41 0 -30 30 -34 57 -9 17 16 20 24 11 30 -9 5 -6 8 8 8 12 0 29 11 37 24
15 22 15 25 -2 40 -18 16 -20 15 -40 -10z m29 -29 c-9 -11 -16 -13 -23 -6 -7
7 -6 15 3 26 9 11 16 13 23 6 7 -7 6 -15 -3 -26z m-60 -60 c-10 -12 -15 -13
-21 -3 -11 17 11 42 24 29 7 -7 6 -15 -3 -26z"/>
<path d="M1355 490 c-3 -5 -1 -10 4 -10 6 0 11 5 11 10 0 6 -2 10 -4 10 -3 0
-8 -4 -11 -10z"/>
<path d="M294 565 c-12 -8 -27 -28 -34 -45 -29 -70 63 -112 124 -55 29 27 33
60 10 93 -18 26 -68 30 -100 7z m84 -37 c-3 -20 -59 -68 -80 -68 -23 0 -19 33
8 61 34 36 77 40 72 7z"/>
<path d="M519 502 c-15 -17 -14 -21 6 -40 28 -27 41 -28 54 -3 8 14 5 23 -14
40 -30 25 -27 25 -46 3z m51 -21 c0 -3 -4 -12 -9 -19 -6 -10 -10 -10 -20 2
-15 18 -6 37 14 29 8 -3 15 -8 15 -12z"/>
<path d="M1473 508 c-12 -6 -27 -24 -34 -40 -10 -25 -9 -33 8 -56 38 -52 123
-59 138 -11 20 61 -56 134 -112 107z m58 -47 c31 -32 39 -71 14 -71 -8 0 -32
15 -52 34 -32 29 -35 36 -24 50 19 22 28 20 62 -13z"/>
<path d="M430 465 c0 -18 -5 -25 -18 -25 -24 0 -52 -31 -52 -58 0 -21 45 -82
61 -82 5 0 9 6 9 13 0 17 72 87 89 87 10 0 9 5 -4 20 -22 24 -35 26 -35 5 0
-8 -4 -15 -9 -15 -17 0 -23 20 -11 35 10 12 10 18 0 30 -18 22 -30 18 -30 -10z
m16 -66 c3 -6 -5 -22 -18 -36 -20 -20 -27 -22 -36 -10 -9 10 -8 19 4 35 16 24
39 29 50 11z"/>
<path d="M589 446 c-15 -20 -15 -22 8 -39 13 -11 31 -16 39 -13 21 8 17 42 -9
59 -20 13 -24 13 -38 -7z m51 -15 c0 -3 -4 -12 -9 -19 -6 -10 -10 -10 -21 3
-9 11 -9 15 -1 15 7 0 9 4 6 10 -3 6 1 7 9 4 9 -3 16 -9 16 -13z"/>
<path d="M1364 402 c-19 -16 -29 -34 -27 -44 5 -21 23 -24 23 -4 0 7 6 19 13
25 11 8 20 2 44 -27 16 -20 33 -45 36 -56 7 -17 9 -18 26 -2 17 15 16 18 -26
63 -23 26 -43 53 -43 60 0 19 -12 15 -46 -15z"/>
<path d="M660 399 c-7 -11 -10 -21 -8 -22 2 -1 13 -8 26 -15 18 -10 27 -10 38
-1 22 18 17 38 -12 49 -33 13 -32 13 -44 -11z m54 -24 c-5 -11 -11 -12 -25 -5
-10 6 -16 17 -13 25 5 11 11 12 25 5 10 -6 16 -17 13 -25z"/>
<path d="M510 365 c-7 -8 -10 -24 -7 -35 3 -10 -1 -24 -9 -31 -20 -16 -17 -35
8 -59 29 -27 41 -25 56 10 7 16 26 43 42 60 l28 30 -28 20 c-33 24 -73 26 -90
5z m67 -21 c1 -5 -4 -18 -12 -28 -21 -28 -42 -7 -25 24 11 21 31 23 37 4z
m-37 -63 c0 -12 -20 -25 -27 -18 -7 7 6 27 18 27 5 0 9 -4 9 -9z"/>
<path d="M1320 300 c0 -13 5 -20 13 -17 6 2 12 10 12 17 0 7 -6 15 -12 18 -8
2 -13 -5 -13 -18z"/>
<path d="M625 270 c-7 -12 2 -30 16 -30 5 0 9 9 9 20 0 21 -15 27 -25 10z"/>
<path d="M1275 1461 c-3 -5 0 -13 6 -17 7 -4 9 -3 5 4 -3 5 0 13 6 15 9 4 10
6 1 6 -6 1 -14 -3 -18 -8z"/>
<path d="M1395 1359 c-4 -6 -4 -13 -1 -16 3 -4 6 -1 6 6 0 7 5 9 12 5 7 -4 8
-3 4 4 -9 15 -13 15 -21 1z"/>
<path d="M930 900 c0 -6 7 -10 15 -10 8 0 15 2 15 4 0 2 -7 6 -15 10 -8 3 -15
1 -15 -4z"/>
<path d="M1020 355 c-14 -8 -20 -14 -15 -14 6 0 21 6 35 14 14 8 21 14 15 14
-5 0 -21 -6 -35 -14z"/>
<path d="M853 233 c9 -2 23 -2 30 0 6 3 -1 5 -18 5 -16 0 -22 -2 -12 -5z"/>
</g>
</svg>
