<?xml version="1.0" standalone="no"?>
<!DOCTYPE svg PUBLIC "-//W3C//DTD SVG 20010904//EN"
 "http://www.w3.org/TR/2001/REC-SVG-20010904/DTD/svg10.dtd">
<svg version="1.0" xmlns="http://www.w3.org/2000/svg"
 width="1024.000000pt" height="1024.000000pt" viewBox="0 0 1024.000000 1024.000000"
 preserveAspectRatio="xMidYMid meet">
<metadata>
Created by potrace 1.11, written by Peter Selinger 2001-2013
</metadata>
<g transform="translate(0.000000,1024.000000) scale(0.100000,-0.100000)"
fill="#000000" stroke="none">
<path d="M4979 10236 c-2 -2 -29 -6 -59 -10 -68 -8 -155 -22 -155 -26 0 -2 -8
-4 -55 -13 -66 -14 -276 -98 -320 -127 -8 -6 -28 -17 -45 -24 -47 -22 -191
-121 -269 -185 -70 -57 -209 -191 -274 -264 -96 -108 -302 -392 -302 -417 0
-5 -4 -10 -9 -10 -5 0 -13 -10 -17 -22 -4 -13 -10 -25 -13 -28 -17 -12 -192
-342 -197 -369 -2 -8 -8 -17 -14 -21 -7 -4 -11 -10 -9 -14 2 -7 -31 -83 -69
-163 -9 -17 -20 -29 -26 -26 -5 4 -25 7 -45 9 -20 1 -88 6 -151 10 -200 14
-551 8 -695 -12 -16 -2 -50 -7 -75 -10 -25 -3 -94 -16 -155 -30 -60 -13 -120
-27 -133 -29 -23 -6 -105 -31 -132 -42 -8 -3 -22 -7 -30 -9 -58 -12 -290 -127
-389 -193 -95 -63 -115 -78 -144 -105 -15 -14 -30 -26 -33 -26 -12 0 -176
-176 -220 -235 -16 -22 -32 -41 -36 -43 -5 -2 -8 -8 -8 -12 0 -5 -13 -29 -30
-53 -16 -25 -30 -50 -30 -56 0 -6 -4 -11 -10 -11 -5 0 -9 -3 -8 -7 0 -5 -15
-42 -34 -83 -34 -72 -47 -103 -54 -125 -26 -79 -56 -187 -60 -215 -3 -19 -7
-44 -9 -55 -16 -92 -20 -152 -19 -295 0 -91 3 -189 7 -218 11 -86 24 -167 27
-167 1 0 4 -13 6 -30 2 -16 10 -50 16 -75 7 -25 13 -47 14 -50 4 -21 17 -68
21 -80 3 -8 7 -22 9 -31 6 -29 91 -251 124 -324 35 -77 116 -241 130 -265 5
-8 33 -55 61 -105 29 -49 69 -117 91 -150 21 -33 43 -67 48 -75 6 -8 39 -57
74 -108 l65 -94 -37 -51 c-20 -29 -40 -53 -44 -55 -5 -2 -8 -8 -8 -13 0 -8
-57 -97 -70 -109 -14 -13 -184 -301 -183 -310 0 -3 -10 -21 -21 -40 -86 -138
-231 -509 -272 -691 -2 -10 -6 -28 -9 -40 -2 -11 -6 -28 -9 -37 -3 -9 -8 -35
-11 -57 -3 -23 -7 -52 -10 -65 -15 -75 -20 -163 -19 -320 1 -199 16 -311 68
-485 14 -46 62 -165 93 -228 137 -278 385 -526 675 -675 79 -41 170 -83 188
-87 3 0 31 -11 62 -23 32 -12 68 -24 80 -26 13 -3 46 -11 73 -19 85 -26 244
-59 258 -54 6 2 20 0 29 -4 10 -5 48 -12 85 -15 37 -3 95 -9 128 -14 61 -8
496 -6 595 3 30 3 85 8 123 11 41 4 67 2 67 -4 0 -11 53 -131 76 -172 8 -16
12 -28 7 -28 -4 0 -3 -4 2 -8 6 -4 31 -50 57 -102 52 -104 119 -229 131 -245
4 -5 37 -57 73 -114 178 -283 356 -485 615 -696 23 -19 94 -68 131 -90 74 -45
134 -79 138 -80 3 -1 37 -16 75 -34 39 -18 75 -34 80 -35 6 -1 15 -4 20 -7 29
-17 194 -61 290 -77 82 -14 150 -18 270 -16 88 2 174 5 190 8 17 2 48 7 70 11
59 9 151 33 235 61 85 29 340 153 340 165 0 4 9 11 20 14 11 3 26 12 33 18 7
7 35 28 62 47 121 84 290 246 412 396 57 68 182 238 195 264 7 14 15 27 19 30
3 3 16 23 29 45 13 22 26 42 29 45 4 3 14 21 25 40 10 19 28 51 39 70 61 107
136 258 130 264 -3 3 -2 6 4 6 6 0 16 15 24 33 7 17 28 65 46 105 18 39 33 77
33 83 0 8 21 9 73 4 144 -15 186 -17 432 -18 138 -1 284 2 325 7 41 5 86 10
100 11 14 2 43 6 65 10 22 4 49 9 60 10 11 1 38 6 60 10 22 5 42 10 45 10 97
21 127 28 135 33 6 4 15 7 20 8 27 4 103 27 130 39 39 17 67 27 82 30 14 4
208 99 248 122 17 10 32 21 33 26 2 4 8 7 13 7 6 0 35 19 67 42 85 64 91 69
151 125 31 29 59 53 64 53 4 0 7 5 7 10 0 6 10 21 23 33 78 77 177 225 245
367 41 86 98 246 108 304 3 17 9 50 14 72 18 79 24 159 24 314 0 146 -9 294
-20 311 -2 4 -6 27 -9 51 -2 24 -6 52 -9 64 -12 56 -59 230 -65 239 -3 6 -7
17 -8 26 -3 20 -68 192 -93 246 -11 24 -20 45 -20 49 0 5 -110 226 -146 294
-11 19 -22 37 -26 38 -5 2 -8 7 -8 12 0 5 -23 46 -51 92 -27 46 -56 92 -62
103 -7 11 -14 22 -17 25 -3 3 -23 32 -44 65 -22 33 -49 70 -60 83 -11 12 -16
22 -12 22 4 0 1 7 -6 15 -40 44 -40 43 -16 77 13 18 25 35 28 38 7 6 80 113
100 145 152 244 171 276 255 445 60 120 171 388 173 420 0 3 7 23 15 45 9 22
19 54 23 70 4 17 9 36 11 42 1 7 5 19 6 25 2 7 7 31 11 53 4 22 10 47 13 55 3
8 7 28 9 44 1 16 5 39 8 51 20 79 29 438 13 530 -4 22 -10 58 -13 80 -10 65
-12 71 -40 173 -15 53 -31 99 -36 100 -4 2 -8 12 -8 22 0 39 -135 284 -199
360 -11 14 -31 38 -43 54 -39 48 -144 152 -210 206 -91 75 -93 76 -188 132
-30 17 -56 35 -58 40 -2 4 -8 8 -14 8 -6 0 -47 18 -92 39 -134 65 -352 138
-465 157 -14 2 -48 9 -76 14 -27 5 -68 12 -90 15 -22 3 -51 7 -65 9 -196 27
-534 28 -850 1 -19 -1 -41 -4 -48 -6 -9 -3 -24 20 -41 61 -15 36 -40 91 -54
123 -15 32 -27 62 -27 66 0 5 -3 11 -7 13 -5 2 -28 44 -53 93 -56 112 -122
229 -132 233 -5 2 -8 8 -8 14 0 11 -108 180 -120 188 -4 3 -14 19 -23 35 -8
17 -24 39 -36 49 -12 11 -21 25 -21 32 0 7 -3 14 -7 16 -5 2 -28 28 -53 58
-84 103 -217 241 -310 320 -29 25 -58 50 -65 57 -7 7 -15 9 -19 6 -3 -4 -6 -1
-6 4 0 6 -20 24 -45 40 -25 15 -45 31 -45 36 0 4 -4 7 -10 7 -5 0 -36 17 -67
37 -32 21 -61 36 -65 35 -5 -1 -8 3 -8 8 0 5 -3 9 -7 8 -5 -1 -24 6 -43 17
-19 11 -37 20 -40 20 -3 0 -21 8 -40 17 -50 23 -201 75 -235 81 -17 3 -41 8
-55 12 -14 3 -40 8 -59 11 -18 3 -43 8 -55 11 -24 5 -352 14 -357 9z m209
-1286 c1 -1 5 -3 10 -5 89 -24 275 -187 339 -296 10 -16 21 -29 25 -29 4 0 8
-5 8 -10 0 -6 8 -20 19 -31 10 -11 29 -40 41 -64 13 -25 27 -45 32 -45 4 0 8
-4 8 -9 0 -5 25 -52 55 -105 83 -146 87 -136 -85 -197 -80 -28 -155 -53 -167
-56 -13 -3 -23 -10 -23 -16 0 -6 -3 -8 -6 -5 -5 5 -129 -40 -209 -77 -79 -36
-116 -47 -132 -39 -10 4 -20 8 -23 9 -3 1 -22 9 -44 18 -21 9 -40 17 -41 17
-1 0 -20 8 -41 17 -22 9 -41 17 -44 18 -3 1 -14 5 -25 10 -110 42 -167 64
-270 100 -66 24 -132 48 -147 54 l-27 10 68 123 c180 325 335 508 496 587 46
22 68 27 118 26 34 -1 63 -4 65 -5z m-2420 -1693 c7 -5 10 -18 7 -28 -3 -9 -8
-26 -10 -36 -2 -10 -13 -65 -25 -123 -12 -58 -23 -118 -25 -135 -2 -16 -6 -43
-9 -60 -21 -113 -61 -394 -58 -407 1 -3 -20 -23 -46 -44 -26 -21 -52 -43 -58
-49 -6 -5 -37 -32 -70 -60 -62 -53 -128 -111 -207 -185 -27 -25 -52 -46 -55
-47 -7 -3 -44 50 -70 97 -7 13 -21 38 -31 55 -24 39 -107 199 -108 205 0 4
-14 38 -44 105 -27 59 -65 200 -75 270 -3 28 -8 54 -11 58 -3 4 1 14 7 22 7 9
8 15 3 15 -11 0 -2 64 13 105 15 40 50 78 104 114 44 30 128 70 160 76 3 1 23
7 45 13 22 6 58 14 80 18 22 3 43 8 46 10 3 2 41 6 85 10 43 4 80 8 82 9 9 8
259 1 270 -8z m5002 3 c0 -3 16 -5 34 -4 47 2 207 -30 294 -59 124 -42 218
-111 247 -182 11 -28 24 -175 15 -175 -3 0 -6 -16 -7 -35 -2 -46 -38 -172 -75
-264 -34 -86 -116 -259 -134 -281 -6 -8 -23 -35 -36 -60 -49 -91 -70 -120 -81
-113 -10 5 -69 57 -203 178 -6 6 -35 30 -64 55 -29 25 -58 50 -64 55 -6 6 -32
27 -58 48 -26 21 -46 46 -46 55 0 9 -2 35 -6 57 -6 41 -12 83 -21 145 -3 19
-7 46 -9 60 -2 14 -10 59 -16 100 -6 41 -14 82 -17 90 -4 8 -5 19 -4 24 1 5
-10 68 -25 140 -34 167 -33 160 -22 167 12 8 298 7 298 -1z m-2540 -546 c25
-1 123 -11 170 -18 65 -9 215 -53 305 -89 167 -67 312 -151 435 -254 84 -71
257 -254 269 -286 2 -6 15 -23 28 -36 12 -14 23 -29 23 -33 0 -4 11 -23 25
-43 41 -62 121 -235 154 -335 28 -87 37 -121 46 -175 2 -11 4 -20 5 -20 3 0
10 -41 17 -105 10 -82 10 -328 0 -400 -10 -75 -24 -155 -27 -155 -1 0 -3 -11
-6 -25 -24 -135 -160 -434 -251 -550 -121 -155 -217 -253 -343 -346 -47 -35
-90 -68 -97 -74 -7 -5 -17 -10 -22 -10 -5 0 -16 -6 -23 -13 -17 -17 -220 -116
-248 -121 -3 -1 -25 -8 -50 -17 -222 -80 -514 -110 -735 -75 -16 2 -48 7 -70
11 -22 3 -47 9 -55 12 -8 3 -26 7 -39 9 -13 2 -31 6 -40 10 -9 4 -25 9 -36 11
-11 2 -27 6 -35 10 -8 3 -18 7 -22 8 -5 2 -9 3 -10 5 -2 1 -10 3 -19 5 -29 5
-259 113 -269 125 -3 4 -12 10 -20 14 -36 17 -116 73 -148 104 -7 6 -17 12
-22 12 -14 0 -237 226 -257 260 -9 17 -21 30 -25 30 -4 0 -8 6 -8 14 0 8 -4
16 -9 18 -4 2 -24 28 -43 58 -100 158 -169 318 -213 490 -9 38 -16 70 -20 95
-2 17 -6 47 -10 67 -11 67 -17 181 -13 251 2 26 -1 47 -5 47 -5 0 -5 6 0 12 4
7 8 24 9 38 2 14 4 48 7 76 2 28 6 55 9 60 3 5 9 30 12 55 7 51 49 196 66 228
6 12 8 21 5 21 -3 0 0 12 9 28 8 15 30 61 50 102 87 182 168 293 330 452 134
132 316 253 486 322 25 10 54 22 65 27 19 8 175 55 220 65 11 3 36 7 55 9 19
2 35 4 35 5 0 5 64 10 179 15 71 2 131 7 134 10 3 3 8 2 11 -2 3 -5 17 -8 31
-9z m-2923 -2641 c44 -40 90 -82 104 -93 13 -11 38 -33 55 -49 18 -16 63 -54
102 -85 69 -56 87 -79 76 -97 -3 -5 -2 -9 3 -9 4 0 8 -12 8 -27 1 -33 14 -139
21 -168 3 -11 7 -33 9 -50 2 -16 4 -30 5 -30 1 0 3 -11 5 -25 7 -64 17 -127
22 -145 3 -11 7 -29 9 -40 2 -11 5 -29 7 -40 2 -11 7 -36 11 -55 3 -19 9 -46
11 -60 21 -94 22 -120 6 -121 -95 -4 -333 6 -381 17 -14 3 -32 6 -40 6 -8 0
-33 5 -55 10 -22 6 -53 12 -70 15 -37 6 -137 43 -194 73 -46 23 -118 92 -125
119 -21 78 -21 90 -12 193 5 62 16 107 51 213 35 105 119 293 138 306 5 3 9
10 9 15 0 8 30 66 53 103 6 9 23 37 39 63 19 33 32 46 41 40 7 -4 49 -39 92
-79z m5753 49 c10 -17 22 -37 27 -44 25 -32 136 -244 166 -318 10 -25 23 -54
28 -65 43 -94 79 -258 80 -365 1 -85 -40 -166 -104 -207 -43 -27 -138 -73
-160 -77 -7 -2 -32 -8 -57 -15 -49 -14 -70 -19 -115 -26 -16 -2 -48 -7 -70
-10 -22 -3 -74 -8 -115 -10 -41 -2 -77 -4 -80 -5 -3 -1 -49 -2 -102 -3 l-96
-2 5 30 c3 17 13 73 24 125 10 52 21 109 23 125 3 17 8 41 11 55 2 13 7 40 10
60 3 20 7 45 9 56 2 12 7 45 11 75 4 30 8 56 10 59 2 3 6 28 9 55 14 104 17
131 20 147 2 20 13 30 106 107 69 57 191 165 274 243 28 26 55 46 60 45 5 -2
17 -17 26 -35z m-2785 -1903 c83 -33 200 -79 260 -101 61 -21 117 -42 125 -45
8 -4 17 -7 20 -8 63 -16 110 -39 110 -55 0 -10 -4 -21 -9 -24 -4 -3 -25 -38
-45 -78 -143 -280 -339 -515 -493 -594 -42 -21 -69 -27 -116 -27 -69 0 -79 2
-122 24 -73 37 -116 70 -193 149 -44 45 -142 167 -142 177 -1 4 -14 24 -30 43
-17 19 -30 38 -30 42 0 4 -13 26 -29 50 -37 55 -131 232 -131 246 0 9 44 29
85 38 6 2 35 12 65 24 30 12 62 23 70 25 8 2 16 4 18 5 1 2 5 3 10 4 4 1 17 7
30 14 12 7 22 11 22 8 0 -3 25 6 55 19 30 14 57 25 60 26 11 2 74 27 154 61
47 20 91 37 96 37 6 1 78 -27 160 -60z"/>
<path d="M5028 5755 c-2 -2 -15 -5 -30 -7 -15 -2 -30 -7 -34 -11 -4 -4 -17 -7
-30 -7 -26 0 -184 -77 -184 -91 0 -5 -6 -9 -12 -9 -18 -1 -110 -96 -154 -161
-21 -29 -37 -55 -36 -56 1 -2 -8 -24 -19 -50 -59 -136 -60 -364 -3 -474 8 -16
12 -29 10 -29 -6 0 46 -90 66 -117 56 -72 156 -155 230 -191 81 -40 96 -45
188 -62 66 -12 210 -5 275 14 93 27 197 89 270 161 61 60 130 157 135 190 1 6
7 19 13 30 12 22 11 18 31 97 13 55 15 224 3 273 -13 53 -42 126 -71 180 -33
63 -175 215 -201 215 -8 0 -15 4 -15 9 0 6 -107 62 -130 66 -3 1 -25 7 -50 15
-41 12 -243 24 -252 15z"/>
</g>
</svg>
