<?xml version="1.0" standalone="no"?>
<!DOCTYPE svg PUBLIC "-//W3C//DTD SVG 20010904//EN"
 "http://www.w3.org/TR/2001/REC-SVG-20010904/DTD/svg10.dtd">
<svg version="1.0" xmlns="http://www.w3.org/2000/svg"
 width="190.000000pt" height="190.000000pt" viewBox="0 0 190.000000 190.000000"
 preserveAspectRatio="xMidYMid meet">
<metadata>
Created by potrace 1.11, written by Peter Selinger 2001-2013
</metadata>
<g transform="translate(0.000000,190.000000) scale(0.100000,-0.100000)"
fill="#000000" stroke="none">
<path d="M771 1885 c-335 -73 -599 -298 -715 -608 -43 -116 -59 -225 -53 -372
10 -249 97 -446 276 -626 182 -183 414 -279 673 -279 422 1 789 276 914 685
26 84 28 102 28 265 0 163 -2 181 -28 265 -106 345 -382 596 -739 669 -93 19
-268 20 -356 1z m398 -36 c362 -84 640 -389 700 -769 39 -241 -35 -508 -196
-710 -270 -337 -748 -444 -1128 -252 -196 98 -329 231 -427 427 -230 456 -26
1028 444 1244 195 90 395 110 607 60z"/>
<path d="M957 1864 c-3 -3 -29 -5 -58 -5 -57 0 -166 -16 -184 -27 -5 -4 -14
-8 -20 -9 -76 -18 -120 -37 -232 -102 -114 -65 -260 -220 -309 -326 -10 -22
-21 -42 -25 -45 -13 -9 -47 -105 -69 -196 -16 -65 -22 -119 -22 -201 1 -110
17 -229 33 -239 4 -2 6 -11 3 -18 -3 -8 -1 -17 5 -21 6 -3 11 -15 11 -26 0
-26 66 -166 90 -189 3 -3 12 -18 20 -34 20 -40 164 -185 220 -223 25 -16 63
-38 85 -49 22 -10 42 -21 45 -25 9 -13 106 -47 196 -69 65 -16 120 -22 201
-21 110 0 229 16 239 32 2 4 11 6 18 3 8 -3 17 -1 21 5 3 6 15 11 26 11 26 0
166 66 189 90 3 3 18 12 34 20 70 36 266 255 266 297 0 7 3 13 8 13 14 0 61
115 88 215 22 83 26 122 27 225 0 120 -20 246 -44 276 -5 6 -6 13 -3 16 7 8
-49 129 -78 170 -13 18 -31 46 -39 62 -15 33 -143 166 -200 208 -104 80 -325
174 -359 153 -6 -3 -10 -2 -10 4 0 5 -26 12 -57 16 -32 3 -70 8 -84 10 -15 2
-29 2 -32 -1z m36 -21 c-7 -2 -19 -2 -25 0 -7 3 -2 5 12 5 14 0 19 -2 13 -5z
m-125 -10 c-10 -2 -28 -2 -40 0 -13 2 -5 4 17 4 22 1 32 -1 23 -4z m242 -3
c10 -7 -1 -8 -35 -4 -27 4 -52 8 -54 10 -10 9 75 3 89 -6z m-311 -4 c-2 -2
-20 -6 -39 -10 -25 -4 -31 -3 -20 4 14 9 69 15 59 6z m401 -51 c413 -131 660
-518 605 -950 -26 -204 -153 -426 -317 -552 -98 -75 -118 -83 -205 -83 l-78 0
-27 71 -26 71 36 15 c82 33 92 38 88 49 -3 7 3 10 12 8 9 -2 33 10 52 27 19
16 49 43 66 57 61 54 161 224 168 285 1 13 6 28 10 35 4 7 6 25 5 40 -1 15 1
35 5 44 7 15 5 59 -9 178 -3 25 -9 46 -14 48 -6 2 -8 9 -5 17 3 7 -14 53 -37
102 -61 124 -169 232 -291 292 -48 23 -98 43 -110 45 -13 1 -29 6 -36 10 -7 4
-25 7 -40 6 -15 -1 -29 -1 -32 0 -3 2 -32 4 -65 5 -42 1 -65 -3 -77 -13 -11
-9 -18 -11 -18 -4 0 17 -60 6 -77 -15 -8 -10 -11 -12 -7 -4 5 11 2 13 -17 8
-13 -4 -29 -7 -36 -7 -6 0 -15 -10 -18 -21 -5 -16 -9 -18 -15 -9 -6 10 -19 6
-56 -15 -27 -16 -59 -39 -71 -51 -13 -13 -23 -20 -23 -17 0 4 -11 -4 -25 -17
-14 -13 -25 -33 -25 -44 0 -17 -2 -18 -9 -7 -8 12 -13 11 -30 -10 -12 -13 -20
-34 -17 -47 2 -16 0 -19 -8 -13 -15 13 -52 -51 -41 -70 5 -8 4 -10 -4 -5 -11
7 -38 -49 -33 -68 2 -5 -3 -13 -10 -17 -7 -4 -13 -26 -13 -48 0 -22 -3 -38 -6
-35 -11 7 -17 -60 -7 -73 7 -9 7 -13 -1 -13 -17 0 -13 -61 7 -83 9 -11 11 -17
5 -13 -10 5 -13 -3 -13 -28 0 -23 6 -39 18 -45 10 -6 12 -11 4 -11 -18 0 -5
-51 19 -72 13 -11 15 -18 7 -20 -8 -3 -6 -16 10 -42 12 -20 22 -47 22 -59 0
-36 14 -49 46 -42 21 5 25 4 14 -4 -12 -8 -11 -14 10 -35 13 -15 33 -26 44
-26 17 0 18 -2 7 -9 -12 -8 -11 -13 10 -30 13 -12 32 -19 41 -17 10 2 15 -1
12 -9 -6 -15 43 -48 61 -41 8 3 12 0 9 -7 -5 -15 51 -41 72 -33 8 3 12 2 9 -4
-3 -6 0 -10 7 -10 8 0 22 -6 31 -13 16 -11 16 -16 -4 -75 l-21 -62 -104 0
-103 0 -62 43 c-166 113 -285 276 -342 467 -34 112 -40 158 -38 260 4 230 92
440 251 596 120 118 225 180 380 222 106 29 119 31 265 27 108 -2 145 -8 215
-30z m67 14 c32 -12 63 -26 68 -32 7 -7 4 -7 -10 -2 -11 4 -47 18 -80 31 -33
13 -55 23 -48 23 7 1 38 -9 70 -20z m-627 -6 c-8 -3 -42 -19 -75 -35 -33 -17
-55 -25 -50 -19 16 16 108 60 125 60 13 -1 13 -1 0 -6z m839 -108 c28 -20 51
-39 51 -42 0 -6 -13 3 -80 51 -30 21 -48 36 -38 33 9 -3 39 -22 67 -42z
m-1054 -8 c-16 -12 -46 -35 -66 -52 -20 -16 -11 -6 20 22 31 29 61 53 66 53 6
0 -3 -11 -20 -23z m1265 -211 c0 -6 -11 3 -23 19 -12 17 -37 48 -56 70 -18 22
-8 13 23 -19 31 -33 56 -64 56 -70z m-773 98 c-3 -3 -12 -4 -19 -1 -8 3 -5 6
6 6 11 1 17 -2 13 -5z m90 0 c-3 -3 -12 -4 -19 -1 -8 3 -5 6 6 6 11 1 17 -2
13 -5z m-209 -39 c-3 -3 -9 2 -12 12 -6 14 -5 15 5 6 7 -7 10 -15 7 -18z
m-535 3 c-23 -38 -83 -120 -83 -114 0 10 79 126 86 126 3 0 2 -6 -3 -12z m827
-20 c88 -21 190 -79 259 -148 97 -97 150 -208 166 -352 l7 -56 -63 -4 c-55 -3
-66 -1 -81 17 -26 29 -39 80 -44 170 -3 53 -10 85 -20 95 -13 13 -16 13 -25
-2 -11 -20 -41 -25 -37 -7 2 6 -3 14 -9 16 -7 3 -13 -2 -13 -10 0 -14 -20 -27
-41 -27 -5 0 -9 6 -9 14 0 8 -5 16 -10 18 -6 2 -16 47 -22 101 -6 53 -15 97
-19 97 -5 0 -9 9 -9 21 0 12 -5 19 -12 16 -7 -2 -12 -12 -12 -21 1 -9 -6 -16
-15 -16 -9 0 -26 -3 -38 -6 -17 -5 -23 -2 -23 9 0 25 -21 31 -27 8 -6 -22 -16
-27 -85 -37 -41 -5 -48 -4 -48 11 0 10 -6 15 -17 13 -11 -2 -17 -11 -15 -21 4
-22 -53 -24 -62 -2 -12 32 -23 12 -39 -75 -41 -210 -129 -409 -230 -517 -33
-34 -63 -63 -68 -63 -5 0 -15 24 -23 53 -66 238 23 486 225 622 137 94 294
122 459 83z m-365 -6 c-3 -3 -11 0 -18 7 -9 10 -8 11 6 5 10 -3 15 -9 12 -12z
m-65 -37 c0 -2 -6 -5 -13 -8 -8 -3 -14 1 -14 8 0 7 6 11 14 8 7 -3 13 -6 13
-8z m-45 -23 c-6 -5 -37 -33 -70 -63 -33 -30 -53 -45 -45 -34 8 11 27 30 43
43 15 13 24 29 20 34 -3 6 -2 8 4 5 6 -4 19 0 29 8 20 15 34 20 19 7z m778
-89 c43 -50 28 -40 -28 18 -28 29 -39 44 -25 34 14 -10 38 -34 53 -52z m376
-24 c43 -95 35 -98 -10 -3 -19 41 -32 74 -28 74 3 0 21 -32 38 -71z m-1638
-26 c-11 -21 -20 -35 -21 -32 0 14 31 81 36 76 3 -3 -4 -22 -15 -44z m944 17
c-3 -5 -10 -10 -16 -10 -5 0 -9 5 -9 10 0 6 7 10 16 10 8 0 12 -4 9 -10z
m-595 -16 c0 -8 -19 -13 -24 -6 -3 5 1 9 9 9 8 0 15 -2 15 -3z m340 -18 c0
-11 -19 -15 -25 -6 -3 5 1 10 9 10 9 0 16 -2 16 -4z m154 -30 c18 -24 21 -44
24 -164 l2 -137 -26 50 c-15 28 -40 85 -55 127 -23 63 -27 83 -18 105 23 60
40 64 73 19z m101 14 c3 -5 -1 -10 -10 -10 -9 0 -13 5 -10 10 3 6 8 10 10 10
2 0 7 -4 10 -10z m-971 -44 c-3 -15 -8 -25 -11 -23 -2 3 -1 17 3 31 3 15 8 25
11 23 2 -3 1 -17 -3 -31z m641 -114 l-1 -127 -42 -81 -42 -81 -80 -30 -79 -30
45 51 c69 78 145 245 190 414 7 27 9 6 9 -116z m325 68 c0 -5 -5 -10 -11 -10
-5 0 -7 5 -4 10 3 6 8 10 11 10 2 0 4 -4 4 -10z m758 -45 c0 -16 -2 -15 -8 5
-11 34 -11 60 0 35 5 -11 8 -29 8 -40z m-1431 19 c-3 -3 -12 -4 -19 -1 -8 3
-5 6 6 6 11 1 17 -2 13 -5z m710 -41 c-3 -10 -5 -4 -5 12 0 17 2 24 5 18 2 -7
2 -21 0 -30z m-1037 -28 c-6 -30 -8 -33 -9 -13 -1 25 8 62 14 56 2 -2 -1 -21
-5 -43z m1168 -51 l-3 -69 -23 62 c-18 50 -21 67 -11 84 10 19 13 20 25 7 11
-11 14 -34 12 -84z m-313 6 c15 -36 36 -78 47 -93 l20 -28 -48 3 -49 3 -3 95
c-1 52 -1 92 2 90 2 -3 16 -34 31 -70z m918 25 c4 -27 3 -35 -3 -25 -5 8 -10
28 -10 44 0 39 6 30 13 -19z m-733 -27 c0 -16 -3 -19 -11 -11 -6 6 -8 16 -5
22 11 17 16 13 16 -11z m-263 -20 c-3 -8 -6 -5 -6 6 -1 11 2 17 5 13 3 -3 4
-12 1 -19z m-790 -35 c-3 -10 -5 -2 -5 17 0 19 2 27 5 18 2 -10 2 -26 0 -35z
m1173 -45 c0 -5 -9 -8 -20 -8 -17 0 -20 7 -20 43 l1 42 19 -35 c11 -19 19 -38
20 -42z m137 10 c13 -15 13 -16 -6 -11 -12 3 -21 11 -21 18 0 8 -3 22 -6 32
-5 15 -3 15 7 -2 6 -11 18 -28 26 -37z m-537 22 c0 -5 -2 -10 -4 -10 -3 0 -8
5 -11 10 -3 6 -1 10 4 10 6 0 11 -4 11 -10z m1017 -72 c-2 -13 -4 -5 -4 17 -1
22 1 32 4 23 2 -10 2 -28 0 -40z m-1477 18 c0 -2 -8 -10 -17 -17 -16 -13 -17
-12 -4 4 13 16 21 21 21 13z m368 -67 c-25 -16 -28 -9 -10 28 l17 36 3 -28 c2
-15 -2 -32 -10 -36z m-670 -10 c-3 -33 -4 -33 -8 8 -3 23 -2 39 3 34 5 -5 7
-24 5 -42z m1309 45 c-3 -3 -12 -4 -19 -1 -8 3 -5 6 6 6 11 1 17 -2 13 -5z
m-294 -70 c-81 -54 -92 -61 -78 -47 17 19 128 93 137 93 5 0 -21 -21 -59 -46z
m161 15 c-27 -17 -67 -47 -89 -67 -39 -37 -39 -37 -10 -3 31 34 123 101 139
101 6 0 -12 -14 -40 -31z m589 -30 c-5 -5 -7 7 -4 29 5 34 6 35 9 8 2 -16 0
-32 -5 -37z m-1014 17 c-10 -9 -109 -56 -109 -51 0 6 91 54 104 55 5 0 7 -2 5
-4z m-731 -76 c0 -9 -3 -7 -8 5 -5 11 -8 29 -8 40 0 16 2 15 8 -5 4 -14 8 -32
8 -40z m802 56 c0 -2 -8 -10 -17 -17 -16 -13 -17 -12 -4 4 13 16 21 21 21 13z
m-190 -40 c0 -2 -12 -11 -27 -20 l-28 -17 24 20 c23 21 31 25 31 17z m290 -81
c0 -32 -4 -45 -14 -45 -8 0 -21 -3 -30 -6 -13 -5 -16 2 -16 45 0 50 1 51 30
51 29 0 30 -2 30 -45z m430 11 l0 -33 -67 -6 c-117 -11 -131 -10 -135 16 -2
17 -11 23 -35 25 -30 3 -33 1 -33 -22 0 -23 -4 -26 -37 -26 -21 0 -46 7 -55
14 -26 19 -23 46 5 47 12 1 87 5 167 9 80 3 155 7 168 8 19 2 22 -3 22 -32z
m383 -11 c-8 -25 -17 -45 -20 -45 -4 0 2 25 18 68 16 42 18 22 2 -23z m-916
13 c-3 -8 -6 -5 -6 6 -1 11 2 17 5 13 3 -3 4 -12 1 -19z m-437 -27 c0 -22 -4
-43 -10 -46 -6 -4 -10 12 -10 39 0 25 5 46 10 46 6 0 10 -18 10 -39z m418 15
c5 -26 -24 -46 -65 -46 -26 0 -33 4 -33 20 0 16 -7 20 -36 20 -33 0 -36 -2
-30 -24 5 -22 3 -24 -29 -24 -33 0 -35 2 -35 33 0 33 1 34 48 37 26 2 76 3
112 3 56 0 65 -3 68 -19z m-328 -21 c0 -28 -4 -35 -20 -35 -13 0 -20 7 -20 19
0 11 -3 26 -6 35 -5 12 0 16 20 16 23 0 26 -4 26 -35z m60 0 c0 -28 -4 -35
-20 -35 -16 0 -20 7 -20 35 0 28 4 35 20 35 16 0 20 -7 20 -35z m-470 -40 c0
-5 -5 -3 -10 5 -5 8 -10 20 -10 25 0 6 5 3 10 -5 5 -8 10 -19 10 -25z m1070
25 c0 -5 -7 -7 -15 -4 -8 4 -15 8 -15 10 0 2 7 4 15 4 8 0 15 -4 15 -10z
m-446 -16 c7 -18 0 -34 -16 -34 -7 0 -6 6 2 15 9 10 9 15 1 15 -6 0 -11 5 -11
10 0 16 17 12 24 -6z m92 -15 c-26 -17 -50 -28 -53 -26 -5 5 76 55 92 56 6 0
-12 -13 -39 -30z m219 21 c3 -6 -1 -7 -9 -4 -18 7 -21 14 -7 14 6 0 13 -4 16
-10z m125 -21 c0 -4 -7 -6 -15 -3 -8 4 -15 10 -15 15 0 4 7 6 15 3 8 -4 15
-10 15 -15z m590 3 c0 -5 -7 -17 -15 -28 -14 -18 -14 -17 -4 9 12 27 19 34 19
19z m-776 -14 c14 -6 33 -22 41 -35 14 -20 135 -342 135 -357 0 -3 -6 -6 -12
-6 -8 0 -38 72 -71 169 -37 106 -67 177 -81 190 -27 25 -72 27 -97 5 -10 -9
-43 -94 -74 -190 -40 -124 -61 -174 -72 -174 -8 0 -12 6 -10 13 3 6 28 83 57
169 52 158 75 202 114 218 29 12 41 12 70 -2z m-846 -40 c12 -21 18 -38 14
-38 -8 0 -42 63 -42 77 0 8 2 5 28 -39z m1062 32 c0 -5 -5 -10 -11 -10 -5 0
-7 5 -4 10 3 6 8 10 11 10 2 0 4 -4 4 -10z m-591 -119 c24 -17 41 -31 37 -31
-11 0 -65 38 -98 68 -16 14 -31 21 -39 17 -8 -6 -10 -4 -4 4 4 7 -3 24 -16 39
-13 15 -1 6 26 -19 28 -26 70 -61 94 -78z m136 100 c-3 -6 -11 -11 -17 -11 -6
0 -6 6 2 15 14 17 26 13 15 -4z m109 7 c-3 -4 -17 -8 -32 -8 -17 0 -22 3 -15
8 16 10 53 10 47 0z m230 4 c5 -9 -41 -8 -51 1 -3 4 5 7 20 7 14 0 28 -4 31
-8z m76 -2 c0 -5 -7 -7 -15 -4 -8 4 -15 8 -15 10 0 2 7 4 15 4 8 0 15 -4 15
-10z m214 -12 c-10 -13 -34 -36 -53 -52 -26 -21 -22 -15 14 22 52 55 67 66 39
30z m-765 9 c-2 -1 -15 -11 -29 -22 l-25 -20 19 23 c11 12 24 22 29 22 6 0 8
-1 6 -3z m91 -7 c0 -5 -2 -10 -4 -10 -3 0 -8 5 -11 10 -3 6 -1 10 4 10 6 0 11
-4 11 -10z m450 -21 c0 -4 -8 -5 -17 -2 -12 5 -15 2 -10 -10 4 -12 2 -14 -10
-10 -12 5 -14 1 -8 -18 7 -21 6 -22 -8 -10 -15 12 -15 16 6 41 20 25 47 30 47
9z m-355 -27 c16 -20 25 -34 20 -30 -4 4 -15 2 -23 -5 -13 -10 -14 -8 -7 12 6
19 4 23 -8 18 -12 -4 -14 -2 -10 10 5 12 2 15 -10 10 -17 -6 -23 4 -10 16 11
11 17 7 48 -31z m155 -2 c0 -22 -4 -40 -10 -40 -5 0 -10 18 -10 40 0 22 5 40
10 40 6 0 10 -18 10 -40z m-255 -20 c-10 -11 -23 -20 -29 -20 -6 1 0 10 13 20
30 26 39 26 16 0z m970 -55 c-21 -31 -42 -58 -47 -61 -5 -3 10 23 34 58 24 36
45 63 47 61 2 -1 -13 -28 -34 -58z m-1130 27 c-3 -3 -11 0 -18 7 -9 10 -8 11
6 5 10 -3 15 -9 12 -12z m349 -17 c-4 -8 -8 -15 -10 -15 -2 0 -4 7 -4 15 0 8
4 15 10 15 5 0 7 -7 4 -15z m142 -3 c1 -7 0 -8 -3 -2 -8 16 -23 12 -23 -7 0
-15 -2 -16 -10 -3 -6 9 -5 17 3 22 15 10 30 5 33 -10z m-757 -87 c18 -22 8
-13 -23 19 -31 33 -56 64 -56 70 0 6 11 -2 23 -19 12 -16 37 -48 56 -70z m701
78 c0 -16 -2 -16 -11 -3 -8 11 -12 12 -16 3 -2 -7 -9 -13 -14 -13 -6 0 -7 5
-4 10 3 6 1 10 -4 10 -6 0 -11 -4 -11 -10 0 -5 -4 -10 -10 -10 -5 0 -7 7 -4
15 9 23 74 20 74 -2z m245 -3 c-3 -5 -12 -10 -18 -10 -7 0 -6 4 3 10 19 12 23
12 15 0z m-610 -18 c-3 -3 -11 0 -18 7 -9 10 -8 11 6 5 10 -3 15 -9 12 -12z
m80 0 c-3 -3 -11 0 -18 7 -9 10 -8 11 6 5 10 -3 15 -9 12 -12z m33 -27 c-3 -3
-9 2 -12 12 -6 14 -5 15 5 6 7 -7 10 -15 7 -18z m292 15 c0 -5 -5 -10 -11 -10
-5 0 -7 5 -4 10 3 6 8 10 11 10 2 0 4 -4 4 -10z m-70 -10 c0 -5 -4 -10 -10
-10 -5 0 -10 5 -10 10 0 6 5 10 10 10 6 0 10 -4 10 -10z m285 0 c-3 -5 -12
-10 -18 -10 -7 0 -6 4 3 10 19 12 23 12 15 0z m-195 -17 c-8 -3 -24 -10 -35
-15 -20 -9 -20 -9 -1 6 11 9 27 16 35 15 14 0 14 -1 1 -6z m-150 -13 c0 -5 -2
-10 -4 -10 -3 0 -8 5 -11 10 -3 6 -1 10 4 10 6 0 11 -4 11 -10z m85 -10 c-3
-5 -13 -10 -21 -10 -8 0 -14 5 -14 10 0 6 9 10 21 10 11 0 17 -4 14 -10z m-75
-45 c5 3 11 -4 15 -15 8 -24 13 -24 51 -6 47 24 115 36 119 23 37 -103 40
-117 26 -117 -5 0 -11 12 -13 28 l-3 27 -135 0 -135 0 -3 -27 c-2 -16 -8 -28
-13 -28 -6 0 -7 9 -3 23 25 79 32 92 52 95 12 2 23 9 23 15 1 7 3 4 6 -6 2 -9
8 -15 13 -12z m670 8 c0 -11 -120 -107 -126 -101 -2 3 13 17 34 32 22 15 50
38 62 51 25 27 30 29 30 18z m-1131 -95 c30 -21 50 -38 44 -38 -11 0 -123 78
-123 86 0 6 10 0 79 -48z m559 5 c-21 -2 -57 -2 -80 0 -24 2 -7 4 37 4 44 0
63 -2 43 -4z m49 -18 c-8 -20 -187 -23 -187 -2 0 9 23 11 90 9 67 -3 90 0 90
9 0 7 3 10 6 6 4 -3 4 -13 1 -22z m333 -34 c0 -5 -6 -11 -12 -14 -7 -3 -39
-17 -70 -31 -32 -14 -58 -22 -58 -17 0 4 17 13 38 19 20 7 51 20 67 31 36 24
35 23 35 12z m-105 -17 c-43 -19 -627 -19 -670 0 -26 12 19 14 335 14 316 0
361 -2 335 -14z m-647 -34 c3 0 3 -2 0 -5 -5 -6 -78 22 -78 30 0 3 16 -2 36
-10 20 -8 39 -15 42 -15z m57 -20 c13 -5 14 -9 5 -9 -8 0 -24 4 -35 9 -13 5
-14 9 -5 9 8 0 24 -4 35 -9z m469 -20 c-33 -13 -144 -28 -144 -18 0 4 17 9 38
9 20 1 51 5 67 9 41 10 65 11 39 0z m-305 -16 c2 -2 -12 -4 -32 -4 -20 0 -38
4 -42 9 -5 9 64 4 74 -5z m69 -11 c-10 -2 -26 -2 -35 0 -10 3 -2 5 17 5 19 0
27 -2 18 -5z"/>
<path d="M960 1771 c-34 -34 -40 -82 -14 -119 13 -19 24 -23 62 -22 26 1 59
-2 75 -5 23 -6 27 -4 27 14 0 14 5 19 16 14 10 -3 14 -13 11 -25 -4 -12 1 -21
11 -25 9 -3 41 -16 70 -29 41 -18 58 -21 73 -14 31 17 24 37 -11 32 -16 -2
-30 -1 -30 2 0 15 32 81 46 97 14 16 14 18 -5 28 -27 15 -41 14 -41 -3 0 -22
-40 -106 -50 -106 -6 0 -10 33 -10 74 0 59 -3 75 -16 80 -9 4 -18 5 -19 4 -88
-122 -110 -147 -103 -117 3 16 -6 21 -27 13 -8 -4 -22 -4 -30 0 -21 8 -19 70
2 92 16 16 18 15 31 -5 17 -26 32 -27 32 -3 0 26 -12 38 -43 46 -23 5 -33 1
-57 -23z m190 -81 c0 -5 -5 -10 -11 -10 -5 0 -7 5 -4 10 3 6 8 10 11 10 2 0 4
-4 4 -10z"/>
<path d="M798 1783 c-22 -6 -22 -7 -1 -41 l17 -27 -24 20 c-14 11 -28 24 -31
28 -5 7 -59 0 -59 -8 0 -1 6 -15 14 -31 19 -40 29 -104 17 -104 -12 0 -63 95
-59 109 4 14 -20 15 -41 2 -11 -7 -10 -13 3 -34 16 -23 16 -25 0 -31 -20 -8
-35 10 -26 32 4 12 0 14 -19 9 -13 -4 -27 -7 -31 -7 -11 0 -10 -30 0 -30 9 0
52 -98 52 -117 0 -10 6 -10 25 -1 29 13 31 23 10 45 -19 18 -15 37 8 41 12 3
19 -6 23 -27 4 -17 10 -31 14 -31 7 0 82 29 87 34 1 1 -4 24 -12 51 l-15 50
46 -49 c24 -27 48 -46 51 -42 4 4 2 33 -5 64 -7 32 -12 68 -12 80 0 22 -2 23
-32 15z"/>
<path d="M857 1783 c-4 -3 -2 -11 3 -18 5 -7 10 -40 11 -73 1 -57 3 -62 24
-62 28 0 38 10 24 27 -7 8 -10 37 -7 73 4 59 4 60 -22 60 -15 0 -30 -3 -33 -7z"/>
<path d="M466 1641 c-25 -25 -28 -34 -22 -64 7 -36 54 -87 80 -87 25 0 66 41
66 66 0 13 -4 24 -10 24 -5 0 -10 -4 -10 -9 0 -17 -30 -40 -46 -34 -19 7 -47
61 -40 79 4 10 15 12 38 7 l33 -6 -24 27 c-14 14 -27 26 -30 25 -3 0 -19 -13
-35 -28z"/>
<path d="M1440 1615 c0 -8 -20 -36 -45 -62 -42 -44 -44 -48 -28 -65 19 -21 33
-23 33 -5 0 6 7 21 15 32 14 17 17 18 31 3 14 -14 13 -17 -11 -36 l-27 -21 38
-46 c40 -47 54 -55 54 -31 0 14 76 81 91 81 17 0 16 12 -1 35 l-18 25 -42 -48
c-39 -44 -70 -60 -70 -37 0 5 20 31 45 57 42 44 44 48 28 65 -19 21 -33 23
-33 4 0 -24 -26 -38 -39 -22 -10 11 -7 17 10 30 22 15 22 16 4 36 -21 24 -35
26 -35 5z"/>
<path d="M1335 1610 c-4 -7 -3 -16 3 -22 14 -14 45 -2 40 15 -6 16 -34 21 -43
7z"/>
<path d="M338 1535 c-31 -36 -35 -55 -14 -55 7 0 32 -20 55 -45 23 -25 44 -45
48 -45 3 0 22 16 41 36 31 32 33 38 23 60 -12 27 -31 24 -31 -5 0 -32 -25 -44
-45 -21 -16 17 -16 20 -2 20 15 0 33 17 25 25 -1 2 -15 6 -30 10 -21 5 -27 3
-30 -12 -3 -17 -4 -17 -11 0 -7 17 -5 19 42 33 17 6 4 20 -24 27 -14 4 -28 -4
-47 -28z"/>
<path d="M244 1417 c-28 -39 -30 -45 -16 -65 17 -26 34 -29 30 -4 -1 9 1 19 4
22 11 8 88 -43 88 -57 0 -18 10 -16 26 5 17 22 18 42 1 42 -17 0 -87 48 -87
60 0 6 9 10 20 10 24 0 27 15 4 24 -30 11 -40 6 -70 -37z"/>
<path d="M1565 1418 c-29 -15 -45 -39 -45 -65 0 -17 49 -131 66 -151 1 -2 12
6 23 17 25 25 37 26 45 4 8 -19 -9 -33 -41 -33 -13 0 -23 -3 -23 -6 0 -5 19
-45 25 -52 2 -2 19 8 40 22 20 14 52 28 71 32 36 7 40 14 23 45 -10 19 -12 20
-29 4 -20 -18 -40 -13 -40 11 0 8 10 14 25 14 28 0 32 17 11 46 -13 17 -16 17
-28 3 -17 -20 -96 -54 -106 -45 -9 9 28 37 39 30 14 -8 10 21 -5 42 -15 19
-15 19 -30 -1 -11 -15 -17 -17 -27 -8 -9 9 -6 17 14 37 43 43 84 29 70 -23 -7
-29 11 -27 31 3 15 23 14 26 -13 55 -30 32 -61 39 -96 19z"/>
<path d="M255 1300 c-4 -7 -3 -16 3 -22 14 -14 45 -2 40 15 -6 16 -34 21 -43
7z"/>
<path d="M156 1244 c-11 -28 -7 -34 22 -34 27 -1 26 -1 -8 -16 -40 -17 -36
-13 -44 -41 -6 -19 -4 -23 16 -21 26 2 96 -19 116 -35 10 -8 16 -7 23 4 14 22
11 42 -6 35 -8 -3 -29 0 -47 6 l-32 11 34 13 c19 7 45 13 58 13 47 2 22 29
-43 46 -36 10 -65 22 -65 26 0 15 -18 10 -24 -7z"/>
<path d="M1675 1110 c-4 -7 -3 -16 3 -22 14 -14 45 -2 40 15 -6 16 -34 21 -43
7z"/>
<path d="M120 1101 c0 -5 -3 -16 -6 -24 -4 -11 2 -16 18 -19 25 -3 23 -24 -2
-21 -18 2 -30 -15 -30 -46 0 -18 4 -22 18 -16 76 31 106 37 123 26 27 -16 29
-14 29 17 0 26 -4 29 -31 30 -19 0 -47 13 -70 31 -40 33 -49 37 -49 22z"/>
<path d="M1645 1046 c-15 -11 -19 -24 -16 -53 4 -50 16 -63 57 -63 29 0 36 5
54 41 12 23 24 39 27 36 2 -3 -1 -15 -7 -27 -17 -31 -8 -43 18 -25 29 21 30
68 1 88 -29 21 -53 11 -75 -31 -21 -39 -44 -53 -44 -27 0 9 7 29 15 45 18 34
4 41 -30 16z"/>
<path d="M210 971 c0 -5 7 -14 15 -21 8 -7 15 -19 15 -27 0 -13 -12 -15 -65
-11 l-65 4 0 -33 c0 -32 12 -43 25 -23 8 12 115 13 115 1 0 -5 -21 -21 -46
-36 -35 -21 -48 -24 -59 -15 -24 20 -33 3 -21 -44 14 -53 21 -62 38 -49 11 9
79 25 115 27 17 1 18 6 9 36 -4 14 -10 59 -13 100 -3 53 -9 79 -21 88 -18 14
-42 16 -42 3z m50 -175 c0 -7 -11 -16 -25 -18 -31 -6 -33 5 -2 20 12 6 23 11
25 11 1 1 2 -5 2 -13z m-95 -26 c3 -5 1 -10 -4 -10 -6 0 -11 5 -11 10 0 6 2
10 4 10 3 0 8 -4 11 -10z"/>
<path d="M1634 885 c-10 -16 -14 -36 -11 -54 3 -15 2 -32 -2 -37 -5 -5 -12
-19 -16 -31 -5 -19 -3 -23 17 -23 32 0 50 -14 43 -32 -7 -16 -45 -13 -45 3 0
15 -28 10 -34 -7 -12 -30 -6 -41 23 -41 16 0 48 -9 72 -21 46 -23 52 -21 64
17 6 21 4 23 -13 19 -27 -7 -44 5 -36 26 6 15 8 16 31 1 29 -19 29 -19 38 18
6 22 4 27 -12 27 -28 0 -113 30 -113 41 0 4 7 6 15 3 18 -7 19 0 4 28 -17 31
9 52 54 44 45 -8 56 -34 25 -57 -27 -21 -20 -32 16 -23 19 5 27 14 32 42 6 31
3 39 -20 59 -39 34 -109 33 -132 -2z"/>
<path d="M201 691 c-82 -76 22 -167 108 -95 36 30 39 61 10 98 -29 37 -77 35
-118 -3z m97 -33 c2 -11 -8 -23 -27 -32 -66 -35 -100 -4 -38 34 37 23 60 22
65 -2z"/>
<path d="M1546 619 c-33 -39 -33 -51 3 -91 24 -27 36 -33 71 -33 77 0 96 70
35 124 -45 40 -76 40 -109 0z m91 -43 c21 -19 25 -27 16 -37 -15 -15 -87 18
-91 44 -5 26 41 22 75 -7z"/>
<path d="M284 556 c-40 -40 -44 -76 -13 -107 30 -30 85 -20 122 21 34 38 34
50 1 89 -34 41 -67 40 -110 -3z m94 -23 c8 -25 -76 -78 -94 -60 -10 10 16 46
44 61 29 16 44 16 50 -1z"/>
<path d="M1452 497 c-37 -39 -27 -82 28 -120 82 -57 152 42 81 114 -37 36 -79
38 -109 6z m82 -48 c28 -32 31 -44 17 -53 -15 -9 -76 38 -79 62 -5 33 31 28
62 -9z"/>
<path d="M427 483 c-4 -3 -7 -15 -7 -25 0 -11 -7 -18 -20 -18 -26 0 -54 -43
-45 -70 8 -25 53 -80 66 -80 5 0 9 6 9 13 0 14 71 87 85 87 5 0 4 -5 -3 -12
-7 -7 -12 -24 -12 -39 0 -15 -4 -31 -10 -34 -19 -12 -10 -53 16 -74 30 -24 44
-26 44 -8 0 6 18 36 41 66 22 29 39 54 37 55 -48 34 -68 46 -78 46 -6 0 -22
12 -35 28 -23 27 -24 27 -39 7 -13 -17 -15 -18 -16 -3 0 9 6 18 13 21 8 3 7
10 -7 26 -20 22 -28 25 -39 14z m13 -90 c-1 -14 -27 -43 -39 -43 -15 0 -14 23
1 38 13 13 38 16 38 5z m123 -69 c-9 -15 -19 -21 -21 -15 -6 19 6 41 23 41 14
0 13 -3 -2 -26z"/>
<path d="M1385 423 c-11 -8 -28 -21 -39 -28 -13 -10 -17 -21 -12 -39 8 -33 22
-33 30 -1 4 14 10 25 15 25 13 0 71 -72 71 -87 0 -7 3 -13 8 -13 9 1 42 25 42
32 0 3 -18 24 -40 47 -22 23 -40 48 -40 56 0 21 -13 25 -35 8z"/>
<path d="M1315 310 c-4 -7 -3 -16 3 -22 14 -14 45 -2 40 15 -6 16 -34 21 -43
7z"/>
<path d="M615 270 c-4 -7 -3 -16 3 -22 14 -14 45 -2 40 15 -6 16 -34 21 -43 7z"/>
</g>
</svg>
